<?xml version="1.0" encoding="UTF-8" standalone="no"?>
<!-- Created with Inkscape (http://www.inkscape.org/) -->

<svg
   xmlns:dc="http://purl.org/dc/elements/1.1/"
   xmlns:cc="http://creativecommons.org/ns#"
   xmlns:rdf="http://www.w3.org/1999/02/22-rdf-syntax-ns#"
   xmlns:svg="http://www.w3.org/2000/svg"
   xmlns="http://www.w3.org/2000/svg"
   xmlns:sodipodi="http://sodipodi.sourceforge.net/DTD/sodipodi-0.dtd"
   xmlns:inkscape="http://www.inkscape.org/namespaces/inkscape"
   width="96.189644mm"
   height="57.71349mm"
   viewBox="0 0 96.189647 57.71349"
   version="1.1"
   id="svg926"
   sodipodi:docname="zierenberg_weibull_contact_trains.svg"
   inkscape:version="0.92.3 (2405546, 2018-03-11)">
  <sodipodi:namedview
     id="base"
     pagecolor="#ffffff"
     bordercolor="#666666"
     borderopacity="1.0"
     inkscape:pageopacity="0.0"
     inkscape:pageshadow="2"
     inkscape:zoom="1.4"
     inkscape:cx="60.287641"
     inkscape:cy="-2.7233141"
     inkscape:document-units="mm"
     inkscape:current-layer="layer1"
     showgrid="false"
     inkscape:window-width="1863"
     inkscape:window-height="1025"
     inkscape:window-x="57"
     inkscape:window-y="27"
     inkscape:window-maximized="1"
     fit-margin-left="1"
     fit-margin-top="1"
     fit-margin-right="1"
     fit-margin-bottom="1" />
  <defs
     id="defs920" />
  <metadata
     id="metadata923">
    <rdf:RDF>
      <cc:Work
         rdf:about="">
        <dc:format>image/svg+xml</dc:format>
        <dc:type
           rdf:resource="http://purl.org/dc/dcmitype/StillImage" />
        <dc:title></dc:title>
      </cc:Work>
    </rdf:RDF>
  </metadata>
  <g
     id="layer1"
     inkscape:groupmode="layer"
     inkscape:label="Layer 1"
     transform="translate(-38.353132,-43.278471)">
    <path
       inkscape:connector-curvature="0"
       id="path20"
       style="fill:none;stroke:#000000;stroke-width:0.08819444;stroke-linecap:butt;stroke-linejoin:miter;stroke-miterlimit:3.79999995;stroke-dasharray:none;stroke-opacity:1"
       d="M 45.268446,52.021943 H 119.54581" />
    <path
       inkscape:connector-curvature="0"
       id="path22"
       style="fill:none;stroke:#9400d4;stroke-width:0.08819444;stroke-linecap:butt;stroke-linejoin:miter;stroke-miterlimit:3.79999995;stroke-dasharray:none;stroke-opacity:1"
       d="m 53.347057,52.021943 v -7.743472 m 8.519583,7.743472 v -7.743472 m 8.113888,7.743472 v -7.743472 m 8.149168,7.743472 v -7.743472 m 4.92125,7.743472 v -7.743472 m 8.607777,7.743472 v -7.743472 m 7.28486,7.743472 v -7.743472 m 7.108477,7.743472 v -7.743472 m 7.02027,7.743472 v -7.743472" />
    <path
       inkscape:connector-curvature="0"
       id="path24"
       style="fill:none;stroke:#000000;stroke-width:0.08819444;stroke-linecap:butt;stroke-linejoin:miter;stroke-miterlimit:3.79999995;stroke-dasharray:none;stroke-opacity:1"
       d="M 45.268446,52.021943 H 119.54581" />
    <path
       inkscape:connector-curvature="0"
       id="path26"
       style="fill:none;stroke:#000000;stroke-width:0.08819444;stroke-linecap:butt;stroke-linejoin:miter;stroke-miterlimit:3.79999995;stroke-dasharray:none;stroke-opacity:1"
       d="M 45.268446,61.74097 H 119.54581" />
    <path
       inkscape:connector-curvature="0"
       id="path28"
       style="fill:none;stroke:#9400d4;stroke-width:0.08819444;stroke-linecap:butt;stroke-linejoin:miter;stroke-miterlimit:3.79999995;stroke-dasharray:none;stroke-opacity:1"
       d="m 49.907473,61.74097 v -7.76111 m 5.626806,7.76111 v -7.76111 m 8.131527,7.76111 v -7.76111 m 1.42875,7.76111 v -7.76111 m 15.08125,7.76111 v -7.76111 m 8.713613,7.76111 v -7.76111 m 4.90361,7.76111 v -7.76111 m 6.473471,7.76111 v -7.76111 m 0.59972,7.76111 v -7.76111 m 2.01084,7.76111 v -7.76111 m 14.25222,7.76111 v -7.76111" />
    <path
       inkscape:connector-curvature="0"
       id="path30"
       style="fill:none;stroke:#000000;stroke-width:0.08819444;stroke-linecap:butt;stroke-linejoin:miter;stroke-miterlimit:3.79999995;stroke-dasharray:none;stroke-opacity:1"
       d="M 45.268446,61.74097 H 119.54581" />
    <path
       inkscape:connector-curvature="0"
       id="path32"
       style="fill:none;stroke:#000000;stroke-width:0.08819444;stroke-linecap:butt;stroke-linejoin:miter;stroke-miterlimit:3.79999995;stroke-dasharray:none;stroke-opacity:1"
       d="M 45.268446,71.459929 H 119.54581" />
    <path
       inkscape:connector-curvature="0"
       id="path34"
       style="fill:none;stroke:#9400d4;stroke-width:0.08819444;stroke-linecap:butt;stroke-linejoin:miter;stroke-miterlimit:3.79999995;stroke-dasharray:none;stroke-opacity:1"
       d="m 59.361918,71.459929 v -7.761042 m 9.383888,7.761042 v -7.761042 m 2.275417,7.761042 v -7.761042 m 0.9525,7.761042 v -7.761042 m 0.03528,7.761042 v -7.761042 m 24.30639,7.761042 v -7.761042 m 20.372917,7.761042 v -7.761042" />
    <path
       inkscape:connector-curvature="0"
       id="path36"
       style="fill:none;stroke:#000000;stroke-width:0.08819444;stroke-linecap:butt;stroke-linejoin:miter;stroke-miterlimit:3.79999995;stroke-dasharray:none;stroke-opacity:1"
       d="M 45.268446,71.459929 H 119.54581" />
    <path
       inkscape:connector-curvature="0"
       id="path38"
       style="fill:none;stroke:#000000;stroke-width:0.08819444;stroke-linecap:butt;stroke-linejoin:miter;stroke-miterlimit:3.79999995;stroke-dasharray:none;stroke-opacity:1"
       d="M 45.268446,81.178956 H 119.54581" />
    <path
       inkscape:connector-curvature="0"
       id="path40"
       style="fill:none;stroke:#9400d4;stroke-width:0.08819444;stroke-linecap:butt;stroke-linejoin:miter;stroke-miterlimit:3.79999995;stroke-dasharray:none;stroke-opacity:1"
       d="m 45.268446,81.178956 v -7.76111 m 0.917222,7.76111 v -7.76111 m 4.250972,7.76111 v -7.76111 m 36.777083,7.76111 v -7.76111 m 3.316113,7.76111 v -7.76111 m 0.105833,7.76111 v -7.76111 m 0.01765,7.76111 v -7.76111 m 5.062363,7.76111 v -7.76111" />
    <path
       inkscape:connector-curvature="0"
       id="path42"
       style="fill:none;stroke:#000000;stroke-width:0.08819444;stroke-linecap:butt;stroke-linejoin:miter;stroke-miterlimit:3.79999995;stroke-dasharray:none;stroke-opacity:1"
       d="M 45.268446,81.178956 H 119.54581" />
    <path
       inkscape:connector-curvature="0"
       id="path44"
       style="fill:none;stroke:#000000;stroke-width:0.08819444;stroke-linecap:butt;stroke-linejoin:miter;stroke-miterlimit:3.79999995;stroke-dasharray:none;stroke-opacity:1"
       d="m 45.268446,90.880346 v 1.11125" />
    <path
       inkscape:connector-curvature="0"
       id="path46"
       style="fill:none;stroke:#000000;stroke-width:0.08819444;stroke-linecap:butt;stroke-linejoin:miter;stroke-miterlimit:3.79999995;stroke-dasharray:none;stroke-opacity:1"
       d="m 54.546501,90.880346 v 1.11125" />
    <path
       inkscape:connector-curvature="0"
       id="path48"
       style="fill:none;stroke:#000000;stroke-width:0.08819444;stroke-linecap:butt;stroke-linejoin:miter;stroke-miterlimit:3.79999995;stroke-dasharray:none;stroke-opacity:1"
       d="m 63.842195,90.880346 v 1.11125" />
    <path
       inkscape:connector-curvature="0"
       id="path50"
       style="fill:none;stroke:#000000;stroke-width:0.08819444;stroke-linecap:butt;stroke-linejoin:miter;stroke-miterlimit:3.79999995;stroke-dasharray:none;stroke-opacity:1"
       d="m 73.12025,90.880346 v 1.11125" />
    <path
       inkscape:connector-curvature="0"
       id="path52"
       style="fill:none;stroke:#000000;stroke-width:0.08819444;stroke-linecap:butt;stroke-linejoin:miter;stroke-miterlimit:3.79999995;stroke-dasharray:none;stroke-opacity:1"
       d="m 82.415946,90.880346 v 1.11125" />
    <path
       inkscape:connector-curvature="0"
       id="path54"
       style="fill:none;stroke:#000000;stroke-width:0.08819444;stroke-linecap:butt;stroke-linejoin:miter;stroke-miterlimit:3.79999995;stroke-dasharray:none;stroke-opacity:1"
       d="m 91.694002,90.880346 v 1.11125" />
    <path
       inkscape:connector-curvature="0"
       id="path56"
       style="fill:none;stroke:#000000;stroke-width:0.08819444;stroke-linecap:butt;stroke-linejoin:miter;stroke-miterlimit:3.79999995;stroke-dasharray:none;stroke-opacity:1"
       d="m 100.97206,90.880346 v 1.11125" />
    <path
       inkscape:connector-curvature="0"
       id="path58"
       style="fill:none;stroke:#000000;stroke-width:0.08819444;stroke-linecap:butt;stroke-linejoin:miter;stroke-miterlimit:3.79999995;stroke-dasharray:none;stroke-opacity:1"
       d="m 110.26775,90.880346 v 1.11125" />
    <path
       inkscape:connector-curvature="0"
       id="path60"
       style="fill:none;stroke:#000000;stroke-width:0.08819444;stroke-linecap:butt;stroke-linejoin:miter;stroke-miterlimit:3.79999995;stroke-dasharray:none;stroke-opacity:1"
       d="m 119.54581,90.880346 v 1.11125" />
    <path
       inkscape:connector-curvature="0"
       id="path62"
       style="fill:none;stroke:#000000;stroke-width:0.08819444;stroke-linecap:butt;stroke-linejoin:miter;stroke-miterlimit:3.79999995;stroke-dasharray:none;stroke-opacity:1"
       d="M 45.268446,90.880346 H 119.54581" />
    <path
       inkscape:connector-curvature="0"
       id="path64"
       style="fill:none;stroke:#9400d4;stroke-width:0.08819444;stroke-linecap:butt;stroke-linejoin:miter;stroke-miterlimit:3.79999995;stroke-dasharray:none;stroke-opacity:1"
       d="m 45.268446,90.880346 v -7.761113 m 0,7.761113 v -7.761113 m 0,7.761113 v -7.761113 m 0.05292,7.761113 v -7.761113 m 0,7.761113 v -7.761113 m 0,7.761113 v -7.761113 m 0.493889,7.761113 v -7.761113 m 17.603607,7.761113 v -7.761113 m 0.105833,7.761113 v -7.761113 m 0,7.761113 v -7.761113 m 0,7.761113 v -7.761113 m 0,7.761113 v -7.761113 m 0,7.761113 v -7.761113 m 0,7.761113 v -7.761113 m 0.01764,7.761113 v -7.761113 m 0,7.761113 v -7.761113 m 0,7.761113 v -7.761113 m 0,7.761113 v -7.761113 m 0.07056,7.761113 v -7.761113 m 0.79375,7.761113 v -7.761113 m 0,7.761113 v -7.761113 m 0,7.761113 v -7.761113 m 0,7.761113 v -7.761113 m 0.15875,7.761113 v -7.761113 m 0.105833,7.761113 v -7.761113 m 0,7.761113 v -7.761113 m 0.105833,7.761113 v -7.761113 m 3.933472,7.761113 v -7.761113 m 0,7.761113 v -7.761113 m 32.155697,7.761113 v -7.761113 m 0.12347,7.761113 v -7.761113 m 0,7.761113 v -7.761113 m 0.65264,7.761113 v -7.761113 m 0,7.761113 v -7.761113 m 0,7.761113 v -7.761113 m 0.0176,7.761113 v -7.761113" />
    <path
       inkscape:connector-curvature="0"
       id="path66"
       style="fill:none;stroke:#000000;stroke-width:0.08819444;stroke-linecap:butt;stroke-linejoin:miter;stroke-miterlimit:3.79999995;stroke-dasharray:none;stroke-opacity:1"
       d="M 45.268446,90.880346 H 119.54581" />
    <g
       transform="translate(60.135644,67.918885)"
       id="g1706">
      <g
         style="font-style:normal;font-variant:normal;font-weight:normal;font-stretch:normal;letter-spacing:normal;word-spacing:normal;text-anchor:start;fill:none;fill-opacity:1;fill-rule:evenodd;stroke:#000000;stroke-linecap:butt;stroke-linejoin:miter;stroke-miterlimit:10.43299961;stroke-dasharray:none;stroke-dashoffset:0;stroke-opacity:1"
         id="content"
         transform="matrix(0.07950199,0,0,-0.07950199,-13.912849,64.323057)"
         xml:space="preserve"
         stroke-miterlimit="10.433"
         font-style="normal"
         font-variant="normal"
         font-weight="normal"
         font-stretch="normal"
         font-size-adjust="none"
         letter-spacing="normal"
         word-spacing="normal"><path
           style="fill:#000000;stroke-width:0"
           inkscape:connector-curvature="0"
           d="m 465.79,426.12 h 4.68 c 0.99,0 1.49,0 1.49,1 0,0.55 -0.5,0.55 -1.39,0.55 h -4.39 c 1.79,7.08 2.04,8.08 2.04,8.37 0,0.85 -0.59,1.35 -1.43,1.35 -0.16,0 -1.55,-0.05 -2,-1.8 l -1.94,-7.92 h -4.69 c -1,0 -1.5,0 -1.5,-0.94 0,-0.61 0.41,-0.61 1.41,-0.61 h 4.37 c -3.58,-14.14 -3.78,-14.98 -3.78,-15.89 0,-2.69 1.89,-4.58 4.58,-4.58 5.08,0 7.92,7.27 7.92,7.67 0,0.5 -0.39,0.5 -0.59,0.5 -0.46,0 -0.5,-0.15 -0.75,-0.7 -2.14,-5.17 -4.78,-6.37 -6.47,-6.37 -1.05,0 -1.55,0.65 -1.55,2.29 0,1.19 0.09,1.55 0.3,2.39 z"
           id="path1703" /></g>    </g>
    <path
       id="path1780"
       d="m 54.704861,93.787407 v -0.004 -0.005 -0.004 -0.004 -0.004 -0.004 -0.003 -0.004 -0.003 -0.003 l -7.95e-4,-0.003 v -0.003 -0.003 -0.002 -0.003 l -7.95e-4,-0.002 -7.95e-4,-0.006 v -0.005 l -0.0016,-0.004 -7.96e-4,-0.004 -0.0016,-0.004 -0.0016,-0.003 -0.0016,-0.003 -0.0016,-0.002 -0.0024,-0.002 -0.0024,-0.002 -0.0032,-0.002 -0.0032,-0.002 -0.0032,-0.002 -0.0024,-8e-4 -0.0016,-7.9e-4 h -0.0024 l -0.0016,-8e-4 -0.0024,-7.9e-4 h -0.0024 l -0.0024,-8e-4 h -0.0024 l -0.0032,-7.9e-4 h -0.0024 -0.0032 l -0.0024,-8e-4 h -0.0032 -0.0032 -0.004 -0.0032 -0.0032 l -0.004,-7.9e-4 h -0.004 -0.004 -0.004 -0.004 c -0.245661,0.25361 -0.59388,0.25361 -0.720288,0.25361 v 0.12323 c 0.0795,0 0.312443,0 0.517558,-0.10336 v 2.05195 c 0,0.1431 -0.01113,0.19001 -0.367299,0.19001 h -0.127203 v 0.12323 c 0.139128,-0.0127 0.483372,-0.0127 0.641581,-0.0127 0.159004,0 0.502453,0 0.641581,0.0127 v -0.12323 h -0.126408 c -0.356169,0 -0.368889,-0.0429 -0.368889,-0.19001 z"
       inkscape:connector-curvature="0"
       style="font-style:normal;font-variant:normal;font-weight:normal;font-stretch:normal;letter-spacing:normal;word-spacing:normal;text-anchor:start;fill:#000000;fill-opacity:1;fill-rule:evenodd;stroke:#000000;stroke-width:0;stroke-linecap:butt;stroke-linejoin:miter;stroke-miterlimit:10.43299961;stroke-dasharray:none;stroke-dashoffset:0;stroke-opacity:1" />
    <path
       id="path1782"
       d="m 63.356834,95.972157 0.420565,-0.407845 c 0.616936,-0.546179 0.855442,-0.760039 0.855442,-1.155959 0,-0.452366 -0.356169,-0.769579 -0.839541,-0.769579 -0.448392,0 -0.741754,0.365709 -0.741754,0.717903 0,0.22181 0.198755,0.22181 0.209885,0.22181 0.06837,0 0.206706,-0.0477 0.206706,-0.209885 0,-0.103353 -0.07155,-0.206705 -0.210681,-0.206705 -0.03101,0 -0.03975,0 -0.05088,0.004 0.09063,-0.257587 0.304493,-0.40387 0.534253,-0.40387 0.360144,0 0.531869,0.321983 0.531869,0.646351 0,0.316418 -0.198755,0.629656 -0.415796,0.875317 l -0.760834,0.847491 c -0.04452,0.04293 -0.04452,0.05088 -0.04452,0.146284 h 1.469992 l 0.111303,-0.689283 h -0.09938 c -0.01987,0.119253 -0.04691,0.293363 -0.08666,0.352989 -0.02862,0.03101 -0.289387,0.03101 -0.376839,0.03101 z"
       inkscape:connector-curvature="0"
       style="font-style:normal;font-variant:normal;font-weight:normal;font-stretch:normal;letter-spacing:normal;word-spacing:normal;text-anchor:start;fill:#000000;fill-opacity:1;fill-rule:evenodd;stroke:#000000;stroke-width:0;stroke-linecap:butt;stroke-linejoin:miter;stroke-miterlimit:10.43299961;stroke-dasharray:none;stroke-dashoffset:0;stroke-opacity:1" />
    <path
       id="path1784"
       d="m 73.281101,95.080622 0.03021,-0.0103 0.02942,-0.0119 0.02862,-0.0119 0.02862,-0.0135 0.02782,-0.0143 0.02624,-0.0151 0.02624,-0.0159 0.02623,-0.0175 0.02465,-0.0175 0.02385,-0.0183 0.02306,-0.0191 0.02226,-0.0199 0.02146,-0.0207 0.02067,-0.0215 0.01987,-0.0215 0.01908,-0.0231 0.01828,-0.0231 0.0167,-0.0239 0.0159,-0.0238 0.0151,-0.0254 0.01352,-0.0254 0.01272,-0.0254 0.01193,-0.0262 0.01033,-0.027 0.0095,-0.027 0.008,-0.027 0.0072,-0.0278 0.0056,-0.0286 0.0048,-0.0286 0.0032,-0.0286 0.0024,-0.0286 v -0.0294 c 0,-0.32437 -0.348218,-0.54698 -0.729033,-0.54698 -0.399895,0 -0.700412,0.23851 -0.700412,0.53903 0,0.13118 0.08666,0.2067 0.20273,0.2067 0.121638,0 0.20114,-0.0874 0.20114,-0.20273 0,-0.19716 -0.186035,-0.19716 -0.244866,-0.19716 0.121638,-0.19399 0.383994,-0.24646 0.527098,-0.24646 0.161389,0 0.380019,0.0875 0.380019,0.44362 0,0.0485 -0.0087,0.27746 -0.112097,0.45237 -0.117663,0.19001 -0.253612,0.20114 -0.351399,0.20591 -0.0326,0.004 -0.127203,0.0111 -0.155029,0.0111 -0.0318,0.004 -0.05963,0.008 -0.05963,0.0477 0,0.0429 0.02783,0.0429 0.0954,0.0429 h 0.174109 c 0.325163,0 0.471447,0.26951 0.471447,0.65907 0,0.53743 -0.272692,0.65271 -0.448391,0.65271 -0.170135,0 -0.466677,-0.0668 -0.60501,-0.30051 0.138333,0.0191 0.260766,-0.0684 0.260766,-0.21864 0,-0.1423 -0.106533,-0.22101 -0.22181,-0.22101 -0.09461,0 -0.221016,0.0549 -0.221016,0.22976 0,0.36014 0.367299,0.62091 0.79979,0.62091 0.483372,0 0.843516,-0.36014 0.843516,-0.76322 0,-0.32596 -0.249636,-0.63363 -0.660661,-0.71711 z"
       inkscape:connector-curvature="0"
       style="font-style:normal;font-variant:normal;font-weight:normal;font-stretch:normal;letter-spacing:normal;word-spacing:normal;text-anchor:start;fill:#000000;fill-opacity:1;fill-rule:evenodd;stroke:#000000;stroke-width:0;stroke-linecap:butt;stroke-linejoin:miter;stroke-miterlimit:10.43299961;stroke-dasharray:none;stroke-dashoffset:0;stroke-opacity:1" />
    <path
       id="path1786"
       d="m 82.591646,95.671207 v 0.34424 c 0,0.14311 -0.0072,0.18604 -0.300518,0.18604 h -0.08348 v 0.12323 c 0.162979,-0.0127 0.368889,-0.0127 0.535843,-0.0127 0.16616,0 0.376045,0 0.537434,0.0127 v -0.12323 h -0.08268 c -0.293363,0 -0.300518,-0.0429 -0.300518,-0.18604 v -0.34424 h 0.39592 v -0.12243 h -0.39592 v -1.80311 c 0,-0.0795 0,-0.10255 -0.0636,-0.10255 -0.03657,0 -0.0477,0 -0.0795,0.0485 l -1.216381,1.85716 h 0.112098 l 0.965949,-1.47715 v 1.47715 h -0.965949 -0.112098 v 0.12243 z"
       inkscape:connector-curvature="0"
       style="font-style:normal;font-variant:normal;font-weight:normal;font-stretch:normal;letter-spacing:normal;word-spacing:normal;text-anchor:start;fill:#000000;fill-opacity:1;fill-rule:evenodd;stroke:#000000;stroke-width:0;stroke-linecap:butt;stroke-linejoin:miter;stroke-miterlimit:10.43299961;stroke-dasharray:none;stroke-dashoffset:0;stroke-opacity:1" />
    <path
       id="path1788"
       d="m 92.484668,95.39526 -7.95e-4,-0.0445 -0.0024,-0.0429 -0.0048,-0.0429 -0.0064,-0.0421 -0.0087,-0.0421 -0.0095,-0.0405 -0.01193,-0.0397 -0.01272,-0.0398 -0.01511,-0.0382 -0.0159,-0.0374 -0.01749,-0.0366 -0.01987,-0.035 -0.02067,-0.0342 -0.02147,-0.0326 -0.02385,-0.0318 -0.02465,-0.0302 -0.02544,-0.0286 -0.02703,-0.0278 -0.02862,-0.0254 -0.02942,-0.0246 -0.03021,-0.0231 -0.0318,-0.0207 -0.0326,-0.0199 -0.03339,-0.0175 -0.03419,-0.0159 -0.03578,-0.0135 -0.03578,-0.0119 -0.03737,-0.0103 -0.03737,-0.007 -0.03816,-0.006 -0.03975,-0.004 -0.03975,-7.9e-4 c -0.19001,0 -0.360144,0.0636 -0.502453,0.20114 v -0.77117 c 0.0795,0.023 0.209885,0.0509 0.336294,0.0509 0.486552,0 0.764014,-0.36015 0.764014,-0.41262 0,-0.0238 -0.01113,-0.0437 -0.03975,-0.0437 -0.004,0 -0.01113,0 -0.03101,0.0127 -0.0795,0.0358 -0.273487,0.11449 -0.539023,0.11449 -0.158209,0 -0.340269,-0.0278 -0.527099,-0.11051 -0.03101,-0.0111 -0.03975,-0.0111 -0.04691,-0.0111 -0.03975,0 -0.03975,0.031 -0.03975,0.0938 v 1.17265 c 0,0.0708 0,0.10336 0.05565,0.10336 0.02782,0 0.03498,-0.0127 0.05088,-0.0358 0.04373,-0.0636 0.19001,-0.27747 0.511198,-0.27747 0.20591,0 0.305287,0.18286 0.336293,0.25362 0.0644,0.14628 0.07155,0.30051 0.07155,0.49927 0,0.13833 0,0.37684 -0.0954,0.543 -0.09381,0.15423 -0.240891,0.25679 -0.423745,0.25679 -0.289387,0 -0.514378,-0.20989 -0.581955,-0.44283 0.01193,0.003 0.02465,0.007 0.06758,0.007 0.131178,0 0.19796,-0.0994 0.19796,-0.19398 0,-0.0954 -0.06678,-0.19399 -0.19796,-0.19399 -0.05565,0 -0.19478,0.0278 -0.19478,0.21068 0,0.34027 0.273487,0.72347 0.717903,0.72347 0.458727,0 0.863392,-0.38002 0.863392,-0.88247 z"
       inkscape:connector-curvature="0"
       style="font-style:normal;font-variant:normal;font-weight:normal;font-stretch:normal;letter-spacing:normal;word-spacing:normal;text-anchor:start;fill:#000000;fill-opacity:1;fill-rule:evenodd;stroke:#000000;stroke-width:0;stroke-linecap:butt;stroke-linejoin:miter;stroke-miterlimit:10.43299961;stroke-dasharray:none;stroke-dashoffset:0;stroke-opacity:1" />
    <path
       id="path1790"
       d="m 100.50658,94.938987 v -0.0946 c 0,-1.00252 0.49052,-1.14562 0.69325,-1.14562 0.0946,0 0.26077,0.0238 0.34822,0.159 -0.0588,0 -0.21783,0 -0.21783,0.17809 0,0.12243 0.0962,0.18206 0.18285,0.18206 0.0636,0 0.18127,-0.0358 0.18127,-0.19001 0,-0.23851 -0.17411,-0.42852 -0.50166,-0.42852 -0.50802,0 -1.04227,0.512 -1.04227,1.38652 0,1.05817 0.45952,1.33881 0.82682,1.33881 0.44044,0 0.81648,-0.37207 0.81648,-0.8944 0,-0.50245 -0.35299,-0.88406 -0.79263,-0.88406 l -0.004,0.0922 c 0.0636,0 0.24645,0 0.36968,0.24566 0.0708,0.14549 0.0708,0.34743 0.0708,0.54141 0,0.19001 0,0.38877 -0.0676,0.53187 -0.11925,0.23692 -0.30052,0.25679 -0.39274,0.25679 v 0 c -0.24964,0 -0.3673,-0.23692 -0.39115,-0.29654 -0.0716,-0.18604 -0.0716,-0.50325 -0.0716,-0.5748 0,-0.30847 0.12641,-0.70439 0.48258,-0.70439 l 0.004,-0.0922 c -0.26792,0 -0.415,0.20273 -0.4945,0.39274 z"
       inkscape:connector-curvature="0"
       style="font-style:normal;font-variant:normal;font-weight:normal;font-stretch:normal;letter-spacing:normal;word-spacing:normal;text-anchor:start;fill:#000000;fill-opacity:1;fill-rule:evenodd;stroke:#000000;stroke-width:0;stroke-linecap:butt;stroke-linejoin:miter;stroke-miterlimit:10.43299961;stroke-dasharray:none;stroke-dashoffset:0;stroke-opacity:1" />
    <path
       id="path1792"
       d="m 111.08289,94.156696 0.003,-0.005 0.003,-0.004 0.002,-0.004 0.002,-0.004 0.002,-0.003 0.002,-0.003 0.002,-0.004 0.002,-0.003 0.002,-0.003 0.002,-0.003 8e-4,-0.003 0.002,-0.003 0.002,-0.003 7.9e-4,-0.003 8e-4,-0.003 7.9e-4,-0.003 8e-4,-0.003 7.9e-4,-0.004 8e-4,-0.004 v -0.003 l 7.9e-4,-0.005 v -0.004 l 8e-4,-0.005 v -0.005 -0.005 l 7.9e-4,-0.006 v -0.006 -0.006 -0.006 -0.006 -0.007 -0.004 -0.004 h -0.96197 c -0.48258,0 -0.49133,-0.0517 -0.50802,-0.12641 h -0.0978 l -0.13038,0.81489 h 0.0978 c 0.0127,-0.0636 0.0485,-0.31323 0.0994,-0.36014 0.0278,-0.0238 0.33708,-0.0238 0.38797,-0.0238 h 0.82125 c -0.0453,0.0636 -0.35696,0.49609 -0.44521,0.62648 -0.35617,0.53345 -0.48655,1.0852 -0.48655,1.48907 0,0.0397 0,0.21704 0.18206,0.21704 0.18285,0 0.18285,-0.17729 0.18285,-0.21704 v -0.20273 c 0,-0.21704 0.0111,-0.43567 0.0437,-0.64953 0.0143,-0.0906 0.0708,-0.4309 0.24487,-0.67657 z"
       inkscape:connector-curvature="0"
       style="font-style:normal;font-variant:normal;font-weight:normal;font-stretch:normal;letter-spacing:normal;word-spacing:normal;text-anchor:start;fill:#000000;fill-opacity:1;fill-rule:evenodd;stroke:#000000;stroke-width:0;stroke-linecap:butt;stroke-linejoin:miter;stroke-miterlimit:10.43299961;stroke-dasharray:none;stroke-dashoffset:0;stroke-opacity:1" />
    <path
       id="path1794"
       d="m 119.78114,95.135366 0.0262,-0.0143 0.0262,-0.0135 0.0254,-0.0151 0.0246,-0.0151 0.0239,-0.0151 0.0238,-0.0159 0.023,-0.0159 0.0223,-0.0159 0.0215,-0.0167 0.0207,-0.0175 0.0199,-0.0167 0.0199,-0.0183 0.0183,-0.0175 0.0175,-0.0191 0.0175,-0.0183 0.0159,-0.0191 0.0159,-0.0191 0.0143,-0.0199 0.0135,-0.0199 0.0127,-0.0207 0.0119,-0.0207 0.0111,-0.0215 0.01,-0.0215 0.009,-0.0215 0.008,-0.0223 0.007,-0.0223 0.006,-0.0223 0.005,-0.023 0.004,-0.0231 0.002,-0.0238 0.002,-0.0239 8e-4,-0.0246 c 0,-0.36492 -0.35299,-0.5915 -0.71313,-0.5915 l -0.004,0.0994 c 0.29019,0 0.54299,0.20671 0.54299,0.49212 0,0.22499 -0.15501,0.415 -0.39194,0.55413 l -0.49132,-0.31642 c -0.18206,-0.11925 -0.19876,-0.25361 -0.19876,-0.32119 0,-0.24168 0.25839,-0.40864 0.53903,-0.40864 l 0.004,-0.0994 c -0.39593,0 -0.71632,0.29336 -0.71632,0.66225 0,0.0708 0.007,0.24964 0.17332,0.43647 0.0437,0.0469 0.19001,0.14628 0.28938,0.21306 l 0.0906,0.0596 0.48895,0.30847 c 0.11051,0.0755 0.29654,0.19478 0.29654,0.43567 0,0.29337 -0.29654,0.49928 -0.62251,0.49928 -0.34027,0 -0.62568,-0.24567 -0.62568,-0.57321 0,-0.23056 0.12642,-0.48338 0.4627,-0.67021 v 0 l -0.0906,-0.0596 c -0.22976,0.11449 -0.57004,0.33709 -0.57004,0.72983 0,0.41977 0.40387,0.68372 0.81967,0.68372 0.4476,0 0.82364,-0.32914 0.82364,-0.75209 0,-0.14231 -0.0429,-0.32119 -0.19319,-0.48735 -0.0763,-0.0835 -0.13912,-0.12322 -0.39274,-0.28064 z"
       inkscape:connector-curvature="0"
       style="font-style:normal;font-variant:normal;font-weight:normal;font-stretch:normal;letter-spacing:normal;word-spacing:normal;text-anchor:start;fill:#000000;fill-opacity:1;fill-rule:evenodd;stroke:#000000;stroke-width:0;stroke-linecap:butt;stroke-linejoin:miter;stroke-miterlimit:10.43299961;stroke-dasharray:none;stroke-dashoffset:0;stroke-opacity:1" />
    <g
       transform="translate(21.978339,64.208712)"
       id="g1939">
      <g
         style="font-style:normal;font-variant:normal;font-weight:normal;font-stretch:normal;letter-spacing:normal;word-spacing:normal;text-anchor:start;fill:none;fill-opacity:1;fill-rule:evenodd;stroke:#000000;stroke-linecap:butt;stroke-linejoin:miter;stroke-miterlimit:10.43299961;stroke-dasharray:none;stroke-dashoffset:0;stroke-opacity:1"
         id="g1937"
         transform="matrix(0.07950199,0,0,-0.07950199,-13.912849,64.323057)"
         xml:space="preserve"
         stroke-miterlimit="10.433"
         font-style="normal"
         font-variant="normal"
         font-weight="normal"
         font-stretch="normal"
         font-size-adjust="none"
         letter-spacing="normal"
         word-spacing="normal"><path
           style="fill:#000000;stroke-width:0"
           inkscape:connector-curvature="0"
           d="m 478.44,422.14 v 0.74 l -0.01,0.75 -0.02,0.75 -0.04,0.74 -0.04,0.75 -0.06,0.74 -0.08,0.74 -0.09,0.73 -0.12,0.73 -0.14,0.73 -0.16,0.72 -0.19,0.72 -0.21,0.72 -0.25,0.7 -0.28,0.7 -0.15,0.35 -0.16,0.34 c -2.28,4.8 -6.37,5.6 -8.47,5.6 -2.98,0 -6.62,-1.3 -8.67,-5.94 -1.59,-3.44 -1.84,-7.33 -1.84,-11.31 0,-3.74 0.2,-8.22 2.25,-12 2.14,-4.03 5.78,-5.03 8.22,-5.03 v 1.09 c -1.94,0 -4.89,1.25 -5.79,6.03 -0.54,2.98 -0.54,7.56 -0.54,10.52 0,3.18 0,6.46 0.4,9.15 0.94,5.94 4.68,6.38 5.93,6.38 1.64,0 4.93,-0.89 5.87,-5.83 0.5,-2.78 0.5,-6.58 0.5,-9.7 0,-3.75 0,-7.13 -0.55,-10.32 -0.75,-4.73 -3.59,-6.23 -5.82,-6.23 v 0 -1.09 c 2.68,0 6.46,1.04 8.67,5.78 1.59,3.43 1.84,7.31 1.84,11.25 z"
           id="path1935" /></g>    </g>
    <path
       id="path1780-2"
       d="m 40.918357,46.932231 v -0.004 -0.005 -0.004 -0.004 -0.004 -0.004 -0.003 -0.004 -0.003 -0.003 l -7.94e-4,-0.003 v -0.003 -0.003 -0.002 -0.003 l -7.94e-4,-0.002 -7.94e-4,-0.006 v -0.005 l -0.0016,-0.004 -7.96e-4,-0.004 -0.0016,-0.004 -0.0016,-0.003 -0.0016,-0.003 -0.0016,-0.002 -0.0024,-0.002 -0.0024,-0.002 -0.0032,-0.002 -0.0032,-0.002 -0.0032,-0.002 -0.0024,-8e-4 -0.0016,-7.9e-4 h -0.0024 l -0.0016,-8e-4 -0.0024,-7.9e-4 h -0.0024 l -0.0024,-8e-4 h -0.0024 l -0.0032,-7.89e-4 h -0.0024 -0.0032 l -0.0024,-8e-4 h -0.0032 -0.0032 -0.004 -0.0032 -0.0032 l -0.004,-7.9e-4 h -0.004 -0.004 -0.004 -0.004 c -0.245662,0.25361 -0.59388,0.25361 -0.720288,0.25361 v 0.12323 c 0.0795,0 0.312442,0 0.517557,-0.10336 v 2.05195 c 0,0.1431 -0.01113,0.19001 -0.367298,0.19001 h -0.127203 v 0.12323 c 0.139128,-0.0127 0.483372,-0.0127 0.641581,-0.0127 0.159004,0 0.502453,0 0.641581,0.0127 v -0.12323 h -0.126408 c -0.356169,0 -0.368889,-0.0429 -0.368889,-0.19001 z"
       inkscape:connector-curvature="0"
       style="font-style:normal;font-variant:normal;font-weight:normal;font-stretch:normal;letter-spacing:normal;word-spacing:normal;text-anchor:start;fill:#000000;fill-opacity:1;fill-rule:evenodd;stroke:#000000;stroke-width:0;stroke-linecap:butt;stroke-linejoin:miter;stroke-miterlimit:10.43299961;stroke-dasharray:none;stroke-dashoffset:0;stroke-opacity:1" />
    <path
       id="path1782-5"
       d="m 40.274639,58.874449 0.420564,-0.407845 c 0.616937,-0.546179 0.855443,-0.760039 0.855443,-1.15596 0,-0.452365 -0.356169,-0.769578 -0.839541,-0.769578 -0.448392,0 -0.741754,0.365708 -0.741754,0.717903 0,0.22181 0.198755,0.22181 0.209885,0.22181 0.06837,0 0.206706,-0.0477 0.206706,-0.209886 0,-0.103352 -0.07155,-0.206704 -0.210681,-0.206704 -0.03101,0 -0.03975,0 -0.05088,0.004 0.09063,-0.257587 0.304493,-0.403869 0.534253,-0.403869 0.360144,0 0.531869,0.321983 0.531869,0.646351 0,0.316418 -0.198755,0.629656 -0.415796,0.875317 l -0.760834,0.847491 c -0.04452,0.04293 -0.04452,0.05088 -0.04452,0.146284 h 1.469992 l 0.111303,-0.689283 h -0.09938 c -0.01987,0.119253 -0.04691,0.293363 -0.08666,0.352989 -0.02862,0.03101 -0.289387,0.03101 -0.376839,0.03101 z"
       inkscape:connector-curvature="0"
       style="font-style:normal;font-variant:normal;font-weight:normal;font-stretch:normal;letter-spacing:normal;word-spacing:normal;text-anchor:start;fill:#000000;fill-opacity:1;fill-rule:evenodd;stroke:#000000;stroke-width:0;stroke-linecap:butt;stroke-linejoin:miter;stroke-miterlimit:10.43299961;stroke-dasharray:none;stroke-dashoffset:0;stroke-opacity:1" />
    <path
       id="path1786-8"
       d="m 40.9357,77.985691 v 0.34424 c 0,0.14311 -0.0072,0.18604 -0.300518,0.18604 h -0.08348 v 0.12323 c 0.162979,-0.0127 0.368889,-0.0127 0.535843,-0.0127 0.16616,0 0.376045,0 0.537434,0.0127 v -0.12323 h -0.08268 c -0.293363,0 -0.300518,-0.0429 -0.300518,-0.18604 v -0.34424 h 0.39592 v -0.12243 h -0.39592 v -1.80311 c 0,-0.0795 0,-0.10255 -0.0636,-0.10255 -0.03657,0 -0.0477,0 -0.0795,0.0485 l -1.216381,1.85716 h 0.112098 l 0.965949,-1.477151 v 1.477151 H 39.994398 39.8823 v 0.12243 z"
       inkscape:connector-curvature="0"
       style="font-style:normal;font-variant:normal;font-weight:normal;font-stretch:normal;letter-spacing:normal;word-spacing:normal;text-anchor:start;fill:#000000;fill-opacity:1;fill-rule:evenodd;stroke:#000000;stroke-width:0;stroke-linecap:butt;stroke-linejoin:miter;stroke-miterlimit:10.43299961;stroke-dasharray:none;stroke-dashoffset:0;stroke-opacity:1" />
    <path
       id="path1788-9"
       d="m 41.550667,87.480154 -7.94e-4,-0.0445 -0.0024,-0.0429 -0.0048,-0.0429 -0.0064,-0.0421 -0.0087,-0.0421 -0.0095,-0.0405 -0.01193,-0.0397 -0.01273,-0.0398 -0.01511,-0.0382 -0.0159,-0.0374 -0.01749,-0.0366 -0.01987,-0.035 -0.02066,-0.0342 -0.02146,-0.0326 -0.02384,-0.0318 -0.02466,-0.0302 -0.02545,-0.0286 -0.02703,-0.0278 -0.02862,-0.0254 -0.02942,-0.0246 -0.03021,-0.0231 -0.0318,-0.0207 -0.0326,-0.0199 -0.03339,-0.0175 -0.03419,-0.0159 -0.03578,-0.0135 -0.03578,-0.0119 -0.03737,-0.0103 -0.03737,-0.007 -0.03816,-0.006 -0.03975,-0.004 -0.03975,-7.91e-4 c -0.190011,0 -0.360146,0.0636 -0.502455,0.20114 v -0.771169 c 0.0795,0.023 0.209886,0.0509 0.336294,0.0509 0.486553,0 0.764016,-0.36015 0.764016,-0.41262 0,-0.0238 -0.01114,-0.0437 -0.03975,-0.0437 -0.004,0 -0.01114,0 -0.03101,0.0127 -0.0795,0.0358 -0.27349,0.11449 -0.539025,0.11449 -0.158208,0 -0.340268,-0.0278 -0.527098,-0.11051 -0.03101,-0.0111 -0.03975,-0.0111 -0.04691,-0.0111 -0.03975,0 -0.03975,0.031 -0.03975,0.0938 v 1.17265 c 0,0.0708 0,0.10336 0.05565,0.10336 0.02782,0 0.03498,-0.0127 0.05088,-0.0358 0.04373,-0.0636 0.190011,-0.277471 0.511196,-0.277471 0.205912,0 0.30529,0.182861 0.336294,0.253621 0.0644,0.14628 0.07155,0.30051 0.07155,0.49927 0,0.13833 0,0.37684 -0.0954,0.543 -0.09381,0.15423 -0.24089,0.25679 -0.423743,0.25679 -0.289388,0 -0.514379,-0.20989 -0.581957,-0.44283 0.01193,0.003 0.02466,0.007 0.06758,0.007 0.131178,0 0.197962,-0.0994 0.197962,-0.19398 0,-0.0954 -0.06678,-0.19399 -0.197962,-0.19399 -0.05565,0 -0.194781,0.0278 -0.194781,0.21068 0,0.34027 0.27349,0.72347 0.717905,0.72347 0.458727,0 0.863391,-0.38002 0.863391,-0.88247 z"
       inkscape:connector-curvature="0"
       style="font-style:normal;font-variant:normal;font-weight:normal;font-stretch:normal;letter-spacing:normal;word-spacing:normal;text-anchor:start;fill:#000000;fill-opacity:1;fill-rule:evenodd;stroke:#000000;stroke-width:0;stroke-linecap:butt;stroke-linejoin:miter;stroke-miterlimit:10.43299961;stroke-dasharray:none;stroke-dashoffset:0;stroke-opacity:1" />
    <path
       id="path1784-0"
       d="m 40.920851,67.461554 0.03021,-0.0103 0.02942,-0.0119 0.02862,-0.0119 0.02862,-0.0135 0.02782,-0.0143 0.02624,-0.0151 0.02624,-0.0159 0.02623,-0.0175 0.02465,-0.0175 0.02385,-0.0183 0.02306,-0.0191 0.02226,-0.0199 0.02146,-0.0207 0.02067,-0.0215 0.01987,-0.0215 0.01908,-0.0231 0.01828,-0.0231 0.0167,-0.0239 0.0159,-0.0238 0.0151,-0.0254 0.01352,-0.0254 0.01272,-0.0254 0.01193,-0.0262 0.01033,-0.027 0.0095,-0.027 0.008,-0.027 0.0072,-0.0278 0.0056,-0.0286 0.0048,-0.0286 0.0032,-0.0286 0.0024,-0.0286 v -0.0294 c 0,-0.32437 -0.348218,-0.546981 -0.729033,-0.546981 -0.399895,0 -0.700412,0.238511 -0.700412,0.53903 0,0.13118 0.08666,0.2067 0.20273,0.2067 0.121638,0 0.20114,-0.0874 0.20114,-0.20273 0,-0.197161 -0.186035,-0.197161 -0.244866,-0.197161 0.121638,-0.193989 0.383994,-0.246459 0.527098,-0.246459 0.161389,0 0.380019,0.0875 0.380019,0.44362 0,0.0485 -0.0087,0.27746 -0.112097,0.45237 -0.117663,0.19001 -0.253612,0.20114 -0.351399,0.20591 -0.0326,0.004 -0.127203,0.0111 -0.155029,0.0111 -0.0318,0.004 -0.05963,0.008 -0.05963,0.0477 0,0.0429 0.02783,0.0429 0.0954,0.0429 h 0.174109 c 0.325163,0 0.471447,0.26951 0.471447,0.65907 0,0.53743 -0.272692,0.65271 -0.448391,0.65271 -0.170136,0 -0.466677,-0.0668 -0.60501,-0.30051 0.138333,0.0191 0.260766,-0.0684 0.260766,-0.21864 0,-0.1423 -0.106533,-0.22101 -0.22181,-0.22101 -0.09461,0 -0.221016,0.0549 -0.221016,0.22976 0,0.36014 0.367299,0.620909 0.79979,0.620909 0.483372,0 0.843516,-0.36014 0.843516,-0.76322 0,-0.32596 -0.249636,-0.63363 -0.660661,-0.71711 z"
       inkscape:connector-curvature="0"
       style="font-style:normal;font-variant:normal;font-weight:normal;font-stretch:normal;letter-spacing:normal;word-spacing:normal;text-anchor:start;fill:#000000;fill-opacity:1;fill-rule:evenodd;stroke:#000000;stroke-width:0;stroke-linecap:butt;stroke-linejoin:miter;stroke-miterlimit:10.43299961;stroke-dasharray:none;stroke-dashoffset:0;stroke-opacity:1" />
    <g
       id="g2112"
       transform="translate(97.220378,13.953061)">
      <g
         word-spacing="normal"
         letter-spacing="normal"
         font-size-adjust="none"
         font-stretch="normal"
         font-weight="normal"
         font-variant="normal"
         font-style="normal"
         stroke-miterlimit="10.433"
         xml:space="preserve"
         transform="matrix(0.08244784,0,0,-0.08244784,-14.428373,69.010746)"
         id="g2110"
         style="font-style:normal;font-variant:normal;font-weight:normal;font-stretch:normal;letter-spacing:normal;word-spacing:normal;text-anchor:start;fill:none;fill-opacity:1;fill-rule:evenodd;stroke:#000000;stroke-linecap:butt;stroke-linejoin:miter;stroke-miterlimit:10.43299961;stroke-dasharray:none;stroke-dashoffset:0;stroke-opacity:1"><path
           id="path2100"
           d="m 479.29,417.96 -0.01,0.37 -0.01,0.35 -0.02,0.35 -0.02,0.34 -0.06,0.65 -0.09,0.63 -0.11,0.59 -0.14,0.57 -0.15,0.54 -0.18,0.51 -0.19,0.49 -0.21,0.45 -0.23,0.44 -0.25,0.4 -0.26,0.38 -0.27,0.36 -0.29,0.33 -0.3,0.31 -0.31,0.29 -0.31,0.26 -0.33,0.24 -0.34,0.22 -0.34,0.2 -0.35,0.18 -0.35,0.16 -0.36,0.14 -0.35,0.12 -0.36,0.11 -0.37,0.09 -0.36,0.06 -0.36,0.06 -0.35,0.04 -0.35,0.02 h -0.35 l -0.05,-1.09 c 4.94,0 4.94,-6.53 4.94,-10.41 0,-1.84 0,-4.73 0.09,-5.57 v 0 c -4.37,-3.85 -8.22,-4.39 -10.2,-4.39 -3,0 -4.49,2.25 -4.49,5.43 0,2.44 1.3,7.82 2.89,10.36 2.33,3.64 5.04,4.58 6.77,4.58 l 0.05,1.09 c -6.82,0 -13.39,-7.12 -13.39,-14.14 0,-4.64 2.98,-8.42 8.06,-8.42 3.14,0 6.73,1.14 10.51,4.19 0.66,-2.64 2.3,-4.19 4.54,-4.19 2.64,0 4.18,2.74 4.18,3.53 0,0.36 -0.29,0.5 -0.59,0.5 -0.36,0 -0.5,-0.14 -0.66,-0.5 -0.89,-2.43 -2.68,-2.43 -2.78,-2.43 -1.54,0 -1.54,3.89 -1.54,5.07 0,1.05 0,1.16 0.5,1.75 4.68,5.88 5.73,11.66 5.73,11.71 0,0.11 -0.06,0.5 -0.61,0.5 -0.5,0 -0.5,-0.14 -0.75,-1.05 -0.89,-3.14 -2.53,-6.92 -4.87,-9.86 z"
           inkscape:connector-curvature="0"
           style="fill:#000000;stroke-width:0" /><path
           id="path2102"
           d="m 535.71,422.5 h 0.14 0.14 0.15 l 0.07,0.01 h 0.07 l 0.08,0.01 0.07,0.01 0.07,0.01 0.07,0.01 0.07,0.01 0.06,0.02 0.07,0.02 0.06,0.02 0.06,0.02 0.06,0.03 0.05,0.03 0.06,0.04 0.05,0.03 0.04,0.05 0.05,0.04 0.04,0.05 0.02,0.03 0.01,0.03 0.02,0.02 0.02,0.03 0.01,0.03 0.01,0.04 0.01,0.03 0.02,0.04 0.01,0.03 v 0.04 l 0.01,0.04 0.01,0.04 v 0.04 l 0.01,0.04 v 0.04 0.05 c 0,1 -0.95,1 -1.64,1 h -29.85 c -0.7,0 -1.64,0 -1.64,-1 0,-0.98 0.94,-0.98 1.69,-0.98 z"
           inkscape:connector-curvature="0"
           style="fill:#000000;stroke-width:0" /><path
           id="path2104"
           d="m 535.76,412.82 h 0.06 0.07 l 0.14,0.01 h 0.13 0.07 l 0.07,0.01 0.07,0.01 h 0.07 l 0.07,0.01 0.07,0.02 0.07,0.01 0.06,0.02 0.06,0.02 0.07,0.02 0.06,0.02 0.05,0.03 0.06,0.03 0.05,0.04 0.05,0.04 0.05,0.04 0.04,0.05 0.02,0.02 0.02,0.03 0.02,0.02 0.01,0.03 0.02,0.03 0.02,0.03 0.01,0.03 0.01,0.03 0.01,0.04 0.02,0.03 0.01,0.04 v 0.04 l 0.01,0.04 0.01,0.04 v 0.04 l 0.01,0.04 v 0.05 0.04 c 0,1 -0.95,1 -1.69,1 h -29.75 c -0.75,0 -1.69,0 -1.69,-1 0,-1 0.94,-1 1.64,-1 z"
           inkscape:connector-curvature="0"
           style="fill:#000000;stroke-width:0" /><path
           id="path2106"
           d="m 568.68,438.09 v 0.05 0.06 0.05 0.05 0.05 0.05 l -0.01,0.04 v 0.05 0.04 0.04 0.04 0.04 0.04 l -0.01,0.03 v 0.04 0.03 l -0.01,0.07 -0.01,0.06 -0.01,0.05 -0.01,0.05 -0.02,0.05 -0.02,0.04 -0.02,0.04 -0.03,0.03 -0.03,0.03 -0.03,0.03 -0.03,0.03 -0.04,0.02 -0.05,0.02 -0.02,0.01 -0.02,0.01 h -0.03 l -0.03,0.01 -0.03,0.01 h -0.03 l -0.03,0.01 h -0.03 l -0.03,0.01 h -0.04 -0.03 l -0.04,0.01 h -0.04 -0.04 -0.04 -0.04 -0.05 l -0.04,0.01 h -0.05 -0.05 -0.05 -0.06 c -3.09,-3.19 -7.46,-3.19 -9.06,-3.19 v -1.55 c 1,0 3.94,0 6.52,1.3 v -25.81 c 0,-1.8 -0.14,-2.39 -4.63,-2.39 h -1.59 v -1.55 c 1.75,0.16 6.08,0.16 8.06,0.16 2,0 6.33,0 8.08,-0.16 v 1.55 h -1.59 c -4.49,0 -4.64,0.54 -4.64,2.39 z"
           inkscape:connector-curvature="0"
           style="fill:#000000;stroke-width:0" /><path
           id="path2108"
           d="m 601.91,422.14 v 0.74 l -0.01,0.75 -0.02,0.75 -0.03,0.74 -0.05,0.75 -0.06,0.74 -0.07,0.74 -0.1,0.73 -0.12,0.73 -0.13,0.73 -0.17,0.72 -0.19,0.72 -0.21,0.72 -0.25,0.7 -0.28,0.7 -0.15,0.35 -0.16,0.34 c -2.28,4.8 -6.37,5.6 -8.46,5.6 -2.99,0 -6.63,-1.3 -8.68,-5.94 -1.59,-3.44 -1.84,-7.33 -1.84,-11.31 0,-3.74 0.2,-8.22 2.25,-12 2.14,-4.03 5.78,-5.03 8.22,-5.03 v 1.09 c -1.94,0 -4.89,1.25 -5.78,6.03 -0.55,2.98 -0.55,7.56 -0.55,10.52 0,3.18 0,6.46 0.41,9.15 0.93,5.94 4.67,6.38 5.92,6.38 1.64,0 4.94,-0.89 5.87,-5.83 0.5,-2.78 0.5,-6.58 0.5,-9.7 0,-3.75 0,-7.13 -0.54,-10.32 -0.75,-4.73 -3.6,-6.23 -5.83,-6.23 v 0 -1.09 c 2.69,0 6.47,1.04 8.67,5.78 1.59,3.43 1.84,7.31 1.84,11.25 z"
           inkscape:connector-curvature="0"
           style="fill:#000000;stroke-width:0" /></g>    </g>
    <g
       id="g2232"
       transform="translate(97.220378,23.68553)">
      <g
         id="g2230"
         transform="matrix(0.08244784,0,0,-0.08244784,-14.428373,69.010746)"
         xml:space="preserve"
         stroke-miterlimit="10.433"
         font-style="normal"
         font-variant="normal"
         font-weight="normal"
         font-stretch="normal"
         font-size-adjust="none"
         letter-spacing="normal"
         word-spacing="normal"
         style="font-style:normal;font-variant:normal;font-weight:normal;font-stretch:normal;letter-spacing:normal;word-spacing:normal;text-anchor:start;fill:none;fill-opacity:1;fill-rule:evenodd;stroke:#000000;stroke-linecap:butt;stroke-linejoin:miter;stroke-miterlimit:10.43299961;stroke-dasharray:none;stroke-dashoffset:0;stroke-opacity:1"><path
           d="m 479.29,417.96 -0.01,0.37 -0.01,0.35 -0.02,0.35 -0.02,0.34 -0.06,0.65 -0.09,0.63 -0.11,0.59 -0.14,0.57 -0.15,0.54 -0.18,0.51 -0.19,0.49 -0.21,0.45 -0.23,0.44 -0.25,0.4 -0.26,0.38 -0.27,0.36 -0.29,0.33 -0.3,0.31 -0.31,0.29 -0.31,0.26 -0.33,0.24 -0.34,0.22 -0.34,0.2 -0.35,0.18 -0.35,0.16 -0.36,0.14 -0.35,0.12 -0.36,0.11 -0.37,0.09 -0.36,0.06 -0.36,0.06 -0.35,0.04 -0.35,0.02 h -0.35 l -0.05,-1.09 c 4.94,0 4.94,-6.53 4.94,-10.41 0,-1.84 0,-4.73 0.09,-5.57 v 0 c -4.37,-3.85 -8.22,-4.39 -10.2,-4.39 -3,0 -4.49,2.25 -4.49,5.43 0,2.44 1.3,7.82 2.89,10.36 2.33,3.64 5.04,4.58 6.77,4.58 l 0.05,1.09 c -6.82,0 -13.39,-7.12 -13.39,-14.14 0,-4.64 2.98,-8.42 8.06,-8.42 3.14,0 6.73,1.14 10.51,4.19 0.66,-2.64 2.3,-4.19 4.54,-4.19 2.64,0 4.18,2.74 4.18,3.53 0,0.36 -0.29,0.5 -0.59,0.5 -0.36,0 -0.5,-0.14 -0.66,-0.5 -0.89,-2.43 -2.68,-2.43 -2.78,-2.43 -1.54,0 -1.54,3.89 -1.54,5.07 0,1.05 0,1.16 0.5,1.75 4.68,5.88 5.73,11.66 5.73,11.71 0,0.11 -0.06,0.5 -0.61,0.5 -0.5,0 -0.5,-0.14 -0.75,-1.05 -0.89,-3.14 -2.53,-6.92 -4.87,-9.86 z"
           id="path2222"
           inkscape:connector-curvature="0"
           style="fill:#000000;stroke-width:0" /><path
           d="m 535.71,422.5 h 0.14 0.14 0.15 l 0.07,0.01 h 0.07 l 0.08,0.01 0.07,0.01 0.07,0.01 0.07,0.01 0.07,0.01 0.06,0.02 0.07,0.02 0.06,0.02 0.06,0.02 0.06,0.03 0.05,0.03 0.06,0.04 0.05,0.03 0.04,0.05 0.05,0.04 0.04,0.05 0.02,0.03 0.01,0.03 0.02,0.02 0.02,0.03 0.01,0.03 0.01,0.04 0.01,0.03 0.02,0.04 0.01,0.03 v 0.04 l 0.01,0.04 0.01,0.04 v 0.04 l 0.01,0.04 v 0.04 0.05 c 0,1 -0.95,1 -1.64,1 h -29.85 c -0.7,0 -1.64,0 -1.64,-1 0,-0.98 0.94,-0.98 1.69,-0.98 z"
           id="path2224"
           inkscape:connector-curvature="0"
           style="fill:#000000;stroke-width:0" /><path
           d="m 535.76,412.82 h 0.06 0.07 l 0.14,0.01 h 0.13 0.07 l 0.07,0.01 0.07,0.01 h 0.07 l 0.07,0.01 0.07,0.02 0.07,0.01 0.06,0.02 0.06,0.02 0.07,0.02 0.06,0.02 0.05,0.03 0.06,0.03 0.05,0.04 0.05,0.04 0.05,0.04 0.04,0.05 0.02,0.02 0.02,0.03 0.02,0.02 0.01,0.03 0.02,0.03 0.02,0.03 0.01,0.03 0.01,0.03 0.01,0.04 0.02,0.03 0.01,0.04 v 0.04 l 0.01,0.04 0.01,0.04 v 0.04 l 0.01,0.04 v 0.05 0.04 c 0,1 -0.95,1 -1.69,1 h -29.75 c -0.75,0 -1.69,0 -1.69,-1 0,-1 0.94,-1 1.64,-1 z"
           id="path2226"
           inkscape:connector-curvature="0"
           style="fill:#000000;stroke-width:0" /><path
           d="m 568.68,438.09 v 0.05 0.06 0.05 0.05 0.05 0.05 l -0.01,0.04 v 0.05 0.04 0.04 0.04 0.04 0.04 l -0.01,0.03 v 0.04 0.03 l -0.01,0.07 -0.01,0.06 -0.01,0.05 -0.01,0.05 -0.02,0.05 -0.02,0.04 -0.02,0.04 -0.03,0.03 -0.03,0.03 -0.03,0.03 -0.03,0.03 -0.04,0.02 -0.05,0.02 -0.02,0.01 -0.02,0.01 h -0.03 l -0.03,0.01 -0.03,0.01 h -0.03 l -0.03,0.01 h -0.03 l -0.03,0.01 h -0.04 -0.03 l -0.04,0.01 h -0.04 -0.04 -0.04 -0.04 -0.05 l -0.04,0.01 h -0.05 -0.05 -0.05 -0.06 c -3.09,-3.19 -7.46,-3.19 -9.06,-3.19 v -1.55 c 1,0 3.94,0 6.52,1.3 v -25.81 c 0,-1.8 -0.14,-2.39 -4.63,-2.39 h -1.59 v -1.55 c 1.75,0.16 6.08,0.16 8.06,0.16 2,0 6.33,0 8.08,-0.16 v 1.55 h -1.59 c -4.49,0 -4.64,0.54 -4.64,2.39 z"
           id="path2228"
           inkscape:connector-curvature="0"
           style="fill:#000000;stroke-width:0" /></g>    </g>
    <g
       id="g2368"
       transform="translate(97.220378,33.382262)">
      <g
         word-spacing="normal"
         letter-spacing="normal"
         font-size-adjust="none"
         font-stretch="normal"
         font-weight="normal"
         font-variant="normal"
         font-style="normal"
         stroke-miterlimit="10.433"
         xml:space="preserve"
         transform="matrix(0.08244784,0,0,-0.08244784,-14.428373,69.010746)"
         id="g2366"
         style="font-style:normal;font-variant:normal;font-weight:normal;font-stretch:normal;letter-spacing:normal;word-spacing:normal;text-anchor:start;fill:none;fill-opacity:1;fill-rule:evenodd;stroke:#000000;stroke-linecap:butt;stroke-linejoin:miter;stroke-miterlimit:10.43299961;stroke-dasharray:none;stroke-dashoffset:0;stroke-opacity:1"><path
           id="path2354"
           d="m 479.29,417.96 -0.01,0.37 -0.01,0.35 -0.02,0.35 -0.02,0.34 -0.06,0.65 -0.09,0.63 -0.11,0.59 -0.14,0.57 -0.15,0.54 -0.18,0.51 -0.19,0.49 -0.21,0.45 -0.23,0.44 -0.25,0.4 -0.26,0.38 -0.27,0.36 -0.29,0.33 -0.3,0.31 -0.31,0.29 -0.31,0.26 -0.33,0.24 -0.34,0.22 -0.34,0.2 -0.35,0.18 -0.35,0.16 -0.36,0.14 -0.35,0.12 -0.36,0.11 -0.37,0.09 -0.36,0.06 -0.36,0.06 -0.35,0.04 -0.35,0.02 h -0.35 l -0.05,-1.09 c 4.94,0 4.94,-6.53 4.94,-10.41 0,-1.84 0,-4.73 0.09,-5.57 v 0 c -4.37,-3.85 -8.22,-4.39 -10.2,-4.39 -3,0 -4.49,2.25 -4.49,5.43 0,2.44 1.3,7.82 2.89,10.36 2.33,3.64 5.04,4.58 6.77,4.58 l 0.05,1.09 c -6.82,0 -13.39,-7.12 -13.39,-14.14 0,-4.64 2.98,-8.42 8.06,-8.42 3.14,0 6.73,1.14 10.51,4.19 0.66,-2.64 2.3,-4.19 4.54,-4.19 2.64,0 4.18,2.74 4.18,3.53 0,0.36 -0.29,0.5 -0.59,0.5 -0.36,0 -0.5,-0.14 -0.66,-0.5 -0.89,-2.43 -2.68,-2.43 -2.78,-2.43 -1.54,0 -1.54,3.89 -1.54,5.07 0,1.05 0,1.16 0.5,1.75 4.68,5.88 5.73,11.66 5.73,11.71 0,0.11 -0.06,0.5 -0.61,0.5 -0.5,0 -0.5,-0.14 -0.75,-1.05 -0.89,-3.14 -2.53,-6.92 -4.87,-9.86 z"
           inkscape:connector-curvature="0"
           style="fill:#000000;stroke-width:0" /><path
           id="path2356"
           d="m 535.71,422.5 h 0.14 0.14 0.15 l 0.07,0.01 h 0.07 l 0.08,0.01 0.07,0.01 0.07,0.01 0.07,0.01 0.07,0.01 0.06,0.02 0.07,0.02 0.06,0.02 0.06,0.02 0.06,0.03 0.05,0.03 0.06,0.04 0.05,0.03 0.04,0.05 0.05,0.04 0.04,0.05 0.02,0.03 0.01,0.03 0.02,0.02 0.02,0.03 0.01,0.03 0.01,0.04 0.01,0.03 0.02,0.04 0.01,0.03 v 0.04 l 0.01,0.04 0.01,0.04 v 0.04 l 0.01,0.04 v 0.04 0.05 c 0,1 -0.95,1 -1.64,1 h -29.85 c -0.7,0 -1.64,0 -1.64,-1 0,-0.98 0.94,-0.98 1.69,-0.98 z"
           inkscape:connector-curvature="0"
           style="fill:#000000;stroke-width:0" /><path
           id="path2358"
           d="m 535.76,412.82 h 0.06 0.07 l 0.14,0.01 h 0.13 0.07 l 0.07,0.01 0.07,0.01 h 0.07 l 0.07,0.01 0.07,0.02 0.07,0.01 0.06,0.02 0.06,0.02 0.07,0.02 0.06,0.02 0.05,0.03 0.06,0.03 0.05,0.04 0.05,0.04 0.05,0.04 0.04,0.05 0.02,0.02 0.02,0.03 0.02,0.02 0.01,0.03 0.02,0.03 0.02,0.03 0.01,0.03 0.01,0.03 0.01,0.04 0.02,0.03 0.01,0.04 v 0.04 l 0.01,0.04 0.01,0.04 v 0.04 l 0.01,0.04 v 0.05 0.04 c 0,1 -0.95,1 -1.69,1 h -29.75 c -0.75,0 -1.69,0 -1.69,-1 0,-1 0.94,-1 1.64,-1 z"
           inkscape:connector-curvature="0"
           style="fill:#000000;stroke-width:0" /><path
           id="path2360"
           d="m 576.96,422.14 -0.01,0.74 -0.01,0.75 -0.02,0.75 -0.03,0.74 -0.04,0.75 -0.06,0.74 -0.08,0.74 -0.1,0.73 -0.11,0.73 -0.14,0.73 -0.16,0.72 -0.19,0.72 -0.22,0.72 -0.24,0.7 -0.28,0.7 -0.15,0.35 -0.16,0.34 c -2.28,4.8 -6.38,5.6 -8.47,5.6 -2.99,0 -6.63,-1.3 -8.67,-5.94 -1.6,-3.44 -1.85,-7.33 -1.85,-11.31 0,-3.74 0.21,-8.22 2.25,-12 2.14,-4.03 5.78,-5.03 8.22,-5.03 v 1.09 c -1.94,0 -4.89,1.25 -5.78,6.03 -0.55,2.98 -0.55,7.56 -0.55,10.52 0,3.18 0,6.46 0.41,9.15 0.94,5.94 4.67,6.38 5.92,6.38 1.64,0 4.94,-0.89 5.88,-5.83 0.5,-2.78 0.5,-6.58 0.5,-9.7 0,-3.75 0,-7.13 -0.55,-10.32 -0.75,-4.73 -3.59,-6.23 -5.83,-6.23 v 0 -1.09 c 2.69,0 6.47,1.04 8.67,5.78 1.6,3.43 1.85,7.31 1.85,11.25 z"
           inkscape:connector-curvature="0"
           style="fill:#000000;stroke-width:0" /><path
           id="path2362"
           d="m 588.55,408.84 v 0.13 l -0.01,0.14 -0.02,0.13 -0.02,0.13 -0.03,0.12 -0.03,0.13 -0.05,0.12 -0.04,0.12 -0.06,0.12 -0.05,0.11 -0.07,0.11 -0.07,0.11 -0.07,0.1 -0.08,0.1 -0.08,0.1 -0.09,0.09 -0.09,0.09 -0.1,0.08 -0.1,0.08 -0.1,0.07 -0.11,0.07 -0.11,0.07 -0.11,0.06 -0.12,0.05 -0.12,0.05 -0.12,0.04 -0.13,0.04 -0.13,0.03 -0.13,0.02 -0.13,0.02 -0.13,0.01 h -0.14 c -1.43,0 -2.64,-1.2 -2.64,-2.64 0,-1.44 1.21,-2.64 2.64,-2.64 1.46,0 2.64,1.2 2.64,2.64 z"
           inkscape:connector-curvature="0"
           style="fill:#000000;stroke-width:0" /><path
           id="path2364"
           d="m 615.16,416.21 -0.01,0.56 -0.03,0.54 -0.06,0.54 -0.08,0.53 -0.11,0.53 -0.12,0.51 -0.14,0.5 -0.17,0.5 -0.18,0.48 -0.21,0.47 -0.22,0.46 -0.24,0.44 -0.26,0.43 -0.28,0.41 -0.29,0.4 -0.31,0.38 -0.33,0.36 -0.34,0.35 -0.36,0.32 -0.37,0.31 -0.38,0.29 -0.4,0.26 -0.41,0.25 -0.42,0.22 -0.43,0.2 -0.45,0.17 -0.45,0.15 -0.46,0.13 -0.48,0.09 -0.48,0.07 -0.49,0.05 -0.5,0.01 c -2.4,0 -4.54,-0.8 -6.33,-2.53 v 9.7 c 1,-0.29 2.64,-0.64 4.23,-0.64 6.13,0 9.61,4.53 9.61,5.19 0,0.3 -0.14,0.55 -0.5,0.55 -0.05,0 -0.14,0 -0.39,-0.16 -1,-0.45 -3.44,-1.44 -6.78,-1.44 -1.99,0 -4.28,0.35 -6.63,1.39 -0.39,0.14 -0.5,0.14 -0.59,0.14 -0.5,0 -0.5,-0.39 -0.5,-1.18 v -14.75 c 0,-0.89 0,-1.3 0.7,-1.3 0.35,0 0.44,0.16 0.64,0.45 0.55,0.8 2.39,3.49 6.43,3.49 2.59,0 3.84,-2.3 4.23,-3.19 0.81,-1.84 0.91,-3.78 0.91,-6.28 0,-1.74 0,-4.74 -1.21,-6.83 -1.18,-1.94 -3.03,-3.23 -5.32,-3.23 -3.65,0 -6.47,2.64 -7.33,5.57 0.15,-0.04 0.31,-0.09 0.86,-0.09 1.64,0 2.48,1.25 2.48,2.44 0,1.2 -0.84,2.44 -2.48,2.44 -0.71,0 -2.46,-0.35 -2.46,-2.65 0,-4.28 3.44,-9.1 9.03,-9.1 5.77,0 10.86,4.78 10.86,11.1 z"
           inkscape:connector-curvature="0"
           style="fill:#000000;stroke-width:0" /></g>    </g>
    <g
       id="g2520"
       transform="translate(97.220378,43.101255)">
      <g
         id="g2518"
         transform="matrix(0.08244784,0,0,-0.08244784,-14.428373,69.010746)"
         xml:space="preserve"
         stroke-miterlimit="10.433"
         font-style="normal"
         font-variant="normal"
         font-weight="normal"
         font-stretch="normal"
         font-size-adjust="none"
         letter-spacing="normal"
         word-spacing="normal"
         style="font-style:normal;font-variant:normal;font-weight:normal;font-stretch:normal;letter-spacing:normal;word-spacing:normal;text-anchor:start;fill:none;fill-opacity:1;fill-rule:evenodd;stroke:#000000;stroke-linecap:butt;stroke-linejoin:miter;stroke-miterlimit:10.43299961;stroke-dasharray:none;stroke-dashoffset:0;stroke-opacity:1"><path
           d="m 479.29,417.96 -0.01,0.37 -0.01,0.35 -0.02,0.35 -0.02,0.34 -0.06,0.65 -0.09,0.63 -0.11,0.59 -0.14,0.57 -0.15,0.54 -0.18,0.51 -0.19,0.49 -0.21,0.45 -0.23,0.44 -0.25,0.4 -0.26,0.38 -0.27,0.36 -0.29,0.33 -0.3,0.31 -0.31,0.29 -0.31,0.26 -0.33,0.24 -0.34,0.22 -0.34,0.2 -0.35,0.18 -0.35,0.16 -0.36,0.14 -0.35,0.12 -0.36,0.11 -0.37,0.09 -0.36,0.06 -0.36,0.06 -0.35,0.04 -0.35,0.02 h -0.35 l -0.05,-1.09 c 4.94,0 4.94,-6.53 4.94,-10.41 0,-1.84 0,-4.73 0.09,-5.57 v 0 c -4.37,-3.85 -8.22,-4.39 -10.2,-4.39 -3,0 -4.49,2.25 -4.49,5.43 0,2.44 1.3,7.82 2.89,10.36 2.33,3.64 5.04,4.58 6.77,4.58 l 0.05,1.09 c -6.82,0 -13.39,-7.12 -13.39,-14.14 0,-4.64 2.98,-8.42 8.06,-8.42 3.14,0 6.73,1.14 10.51,4.19 0.66,-2.64 2.3,-4.19 4.54,-4.19 2.64,0 4.18,2.74 4.18,3.53 0,0.36 -0.29,0.5 -0.59,0.5 -0.36,0 -0.5,-0.14 -0.66,-0.5 -0.89,-2.43 -2.68,-2.43 -2.78,-2.43 -1.54,0 -1.54,3.89 -1.54,5.07 0,1.05 0,1.16 0.5,1.75 4.68,5.88 5.73,11.66 5.73,11.71 0,0.11 -0.06,0.5 -0.61,0.5 -0.5,0 -0.5,-0.14 -0.75,-1.05 -0.89,-3.14 -2.53,-6.92 -4.87,-9.86 z"
           id="path2506"
           inkscape:connector-curvature="0"
           style="fill:#000000;stroke-width:0" /><path
           d="m 535.71,422.5 h 0.14 0.14 0.15 l 0.07,0.01 h 0.07 l 0.08,0.01 0.07,0.01 0.07,0.01 0.07,0.01 0.07,0.01 0.06,0.02 0.07,0.02 0.06,0.02 0.06,0.02 0.06,0.03 0.05,0.03 0.06,0.04 0.05,0.03 0.04,0.05 0.05,0.04 0.04,0.05 0.02,0.03 0.01,0.03 0.02,0.02 0.02,0.03 0.01,0.03 0.01,0.04 0.01,0.03 0.02,0.04 0.01,0.03 v 0.04 l 0.01,0.04 0.01,0.04 v 0.04 l 0.01,0.04 v 0.04 0.05 c 0,1 -0.95,1 -1.64,1 h -29.85 c -0.7,0 -1.64,0 -1.64,-1 0,-0.98 0.94,-0.98 1.69,-0.98 z"
           id="path2508"
           inkscape:connector-curvature="0"
           style="fill:#000000;stroke-width:0" /><path
           d="m 535.76,412.82 h 0.06 0.07 l 0.14,0.01 h 0.13 0.07 l 0.07,0.01 0.07,0.01 h 0.07 l 0.07,0.01 0.07,0.02 0.07,0.01 0.06,0.02 0.06,0.02 0.07,0.02 0.06,0.02 0.05,0.03 0.06,0.03 0.05,0.04 0.05,0.04 0.05,0.04 0.04,0.05 0.02,0.02 0.02,0.03 0.02,0.02 0.01,0.03 0.02,0.03 0.02,0.03 0.01,0.03 0.01,0.03 0.01,0.04 0.02,0.03 0.01,0.04 v 0.04 l 0.01,0.04 0.01,0.04 v 0.04 l 0.01,0.04 v 0.05 0.04 c 0,1 -0.95,1 -1.69,1 h -29.75 c -0.75,0 -1.69,0 -1.69,-1 0,-1 0.94,-1 1.64,-1 z"
           id="path2510"
           inkscape:connector-curvature="0"
           style="fill:#000000;stroke-width:0" /><path
           d="m 576.96,422.14 -0.01,0.74 -0.01,0.75 -0.02,0.75 -0.03,0.74 -0.04,0.75 -0.06,0.74 -0.08,0.74 -0.1,0.73 -0.11,0.73 -0.14,0.73 -0.16,0.72 -0.19,0.72 -0.22,0.72 -0.24,0.7 -0.28,0.7 -0.15,0.35 -0.16,0.34 c -2.28,4.8 -6.38,5.6 -8.47,5.6 -2.99,0 -6.63,-1.3 -8.67,-5.94 -1.6,-3.44 -1.85,-7.33 -1.85,-11.31 0,-3.74 0.21,-8.22 2.25,-12 2.14,-4.03 5.78,-5.03 8.22,-5.03 v 1.09 c -1.94,0 -4.89,1.25 -5.78,6.03 -0.55,2.98 -0.55,7.56 -0.55,10.52 0,3.18 0,6.46 0.41,9.15 0.94,5.94 4.67,6.38 5.92,6.38 1.64,0 4.94,-0.89 5.88,-5.83 0.5,-2.78 0.5,-6.58 0.5,-9.7 0,-3.75 0,-7.13 -0.55,-10.32 -0.75,-4.73 -3.59,-6.23 -5.83,-6.23 v 0 -1.09 c 2.69,0 6.47,1.04 8.67,5.78 1.6,3.43 1.85,7.31 1.85,11.25 z"
           id="path2512"
           inkscape:connector-curvature="0"
           style="fill:#000000;stroke-width:0" /><path
           d="m 588.55,408.84 v 0.13 l -0.01,0.14 -0.02,0.13 -0.02,0.13 -0.03,0.12 -0.03,0.13 -0.05,0.12 -0.04,0.12 -0.06,0.12 -0.05,0.11 -0.07,0.11 -0.07,0.11 -0.07,0.1 -0.08,0.1 -0.08,0.1 -0.09,0.09 -0.09,0.09 -0.1,0.08 -0.1,0.08 -0.1,0.07 -0.11,0.07 -0.11,0.07 -0.11,0.06 -0.12,0.05 -0.12,0.05 -0.12,0.04 -0.13,0.04 -0.13,0.03 -0.13,0.02 -0.13,0.02 -0.13,0.01 h -0.14 c -1.43,0 -2.64,-1.2 -2.64,-2.64 0,-1.44 1.21,-2.64 2.64,-2.64 1.46,0 2.64,1.2 2.64,2.64 z"
           id="path2514"
           inkscape:connector-curvature="0"
           style="fill:#000000;stroke-width:0" /><path
           d="m 607.24,423.73 0.38,0.13 0.37,0.15 0.37,0.15 0.35,0.17 0.35,0.18 0.34,0.19 0.33,0.2 0.32,0.22 0.31,0.22 0.31,0.23 0.29,0.24 0.28,0.25 0.27,0.26 0.26,0.27 0.25,0.27 0.24,0.29 0.22,0.29 0.21,0.3 0.2,0.3 0.19,0.32 0.18,0.32 0.16,0.32 0.14,0.33 0.14,0.34 0.11,0.34 0.11,0.34 0.09,0.35 0.07,0.36 0.06,0.36 0.04,0.36 0.02,0.36 0.01,0.37 c 0,4.08 -4.39,6.88 -9.17,6.88 -5.03,0 -8.81,-3 -8.81,-6.78 0,-1.65 1.09,-2.6 2.54,-2.6 1.53,0 2.53,1.1 2.53,2.55 0,2.48 -2.34,2.48 -3.07,2.48 1.53,2.44 4.82,3.1 6.62,3.1 2.03,0 4.78,-1.1 4.78,-5.58 0,-0.61 -0.11,-3.49 -1.4,-5.69 -1.49,-2.39 -3.19,-2.53 -4.43,-2.59 -0.4,-0.05 -1.59,-0.14 -1.95,-0.14 -0.39,-0.05 -0.75,-0.1 -0.75,-0.6 0,-0.54 0.36,-0.54 1.2,-0.54 h 2.19 c 4.1,0 5.94,-3.39 5.94,-8.29 0,-6.76 -3.44,-8.21 -5.64,-8.21 -2.14,0 -5.88,0.84 -7.61,3.78 1.73,-0.24 3.28,0.86 3.28,2.75 0,1.79 -1.34,2.78 -2.8,2.78 -1.18,0 -2.78,-0.69 -2.78,-2.89 0,-4.53 4.63,-7.81 10.07,-7.81 6.07,0 10.6,4.53 10.6,9.6 0,4.1 -3.14,7.97 -8.31,9.02 z"
           id="path2516"
           inkscape:connector-curvature="0"
           style="fill:#000000;stroke-width:0" /></g>    </g>
    <g
       id="g2688"
       transform="translate(97.220378,52.802643)">
      <g
         word-spacing="normal"
         letter-spacing="normal"
         font-size-adjust="none"
         font-stretch="normal"
         font-weight="normal"
         font-variant="normal"
         font-style="normal"
         stroke-miterlimit="10.433"
         xml:space="preserve"
         transform="matrix(0.08244784,0,0,-0.08244784,-14.428373,69.010746)"
         id="g2686"
         style="font-style:normal;font-variant:normal;font-weight:normal;font-stretch:normal;letter-spacing:normal;word-spacing:normal;text-anchor:start;fill:none;fill-opacity:1;fill-rule:evenodd;stroke:#000000;stroke-linecap:butt;stroke-linejoin:miter;stroke-miterlimit:10.43299961;stroke-dasharray:none;stroke-dashoffset:0;stroke-opacity:1"><path
           id="path2674"
           d="m 479.29,417.96 -0.01,0.37 -0.01,0.35 -0.02,0.35 -0.02,0.34 -0.06,0.65 -0.09,0.63 -0.11,0.59 -0.14,0.57 -0.15,0.54 -0.18,0.51 -0.19,0.49 -0.21,0.45 -0.23,0.44 -0.25,0.4 -0.26,0.38 -0.27,0.36 -0.29,0.33 -0.3,0.31 -0.31,0.29 -0.31,0.26 -0.33,0.24 -0.34,0.22 -0.34,0.2 -0.35,0.18 -0.35,0.16 -0.36,0.14 -0.35,0.12 -0.36,0.11 -0.37,0.09 -0.36,0.06 -0.36,0.06 -0.35,0.04 -0.35,0.02 h -0.35 l -0.05,-1.09 c 4.94,0 4.94,-6.53 4.94,-10.41 0,-1.84 0,-4.73 0.09,-5.57 v 0 c -4.37,-3.85 -8.22,-4.39 -10.2,-4.39 -3,0 -4.49,2.25 -4.49,5.43 0,2.44 1.3,7.82 2.89,10.36 2.33,3.64 5.04,4.58 6.77,4.58 l 0.05,1.09 c -6.82,0 -13.39,-7.12 -13.39,-14.14 0,-4.64 2.98,-8.42 8.06,-8.42 3.14,0 6.73,1.14 10.51,4.19 0.66,-2.64 2.3,-4.19 4.54,-4.19 2.64,0 4.18,2.74 4.18,3.53 0,0.36 -0.29,0.5 -0.59,0.5 -0.36,0 -0.5,-0.14 -0.66,-0.5 -0.89,-2.43 -2.68,-2.43 -2.78,-2.43 -1.54,0 -1.54,3.89 -1.54,5.07 0,1.05 0,1.16 0.5,1.75 4.68,5.88 5.73,11.66 5.73,11.71 0,0.11 -0.06,0.5 -0.61,0.5 -0.5,0 -0.5,-0.14 -0.75,-1.05 -0.89,-3.14 -2.53,-6.92 -4.87,-9.86 z"
           inkscape:connector-curvature="0"
           style="fill:#000000;stroke-width:0" /><path
           id="path2676"
           d="m 535.71,422.5 h 0.14 0.14 0.15 l 0.07,0.01 h 0.07 l 0.08,0.01 0.07,0.01 0.07,0.01 0.07,0.01 0.07,0.01 0.06,0.02 0.07,0.02 0.06,0.02 0.06,0.02 0.06,0.03 0.05,0.03 0.06,0.04 0.05,0.03 0.04,0.05 0.05,0.04 0.04,0.05 0.02,0.03 0.01,0.03 0.02,0.02 0.02,0.03 0.01,0.03 0.01,0.04 0.01,0.03 0.02,0.04 0.01,0.03 v 0.04 l 0.01,0.04 0.01,0.04 v 0.04 l 0.01,0.04 v 0.04 0.05 c 0,1 -0.95,1 -1.64,1 h -29.85 c -0.7,0 -1.64,0 -1.64,-1 0,-0.98 0.94,-0.98 1.69,-0.98 z"
           inkscape:connector-curvature="0"
           style="fill:#000000;stroke-width:0" /><path
           id="path2678"
           d="m 535.76,412.82 h 0.06 0.07 l 0.14,0.01 h 0.13 0.07 l 0.07,0.01 0.07,0.01 h 0.07 l 0.07,0.01 0.07,0.02 0.07,0.01 0.06,0.02 0.06,0.02 0.07,0.02 0.06,0.02 0.05,0.03 0.06,0.03 0.05,0.04 0.05,0.04 0.05,0.04 0.04,0.05 0.02,0.02 0.02,0.03 0.02,0.02 0.01,0.03 0.02,0.03 0.02,0.03 0.01,0.03 0.01,0.03 0.01,0.04 0.02,0.03 0.01,0.04 v 0.04 l 0.01,0.04 0.01,0.04 v 0.04 l 0.01,0.04 v 0.05 0.04 c 0,1 -0.95,1 -1.69,1 h -29.75 c -0.75,0 -1.69,0 -1.69,-1 0,-1 0.94,-1 1.64,-1 z"
           inkscape:connector-curvature="0"
           style="fill:#000000;stroke-width:0" /><path
           id="path2680"
           d="m 576.96,422.14 -0.01,0.74 -0.01,0.75 -0.02,0.75 -0.03,0.74 -0.04,0.75 -0.06,0.74 -0.08,0.74 -0.1,0.73 -0.11,0.73 -0.14,0.73 -0.16,0.72 -0.19,0.72 -0.22,0.72 -0.24,0.7 -0.28,0.7 -0.15,0.35 -0.16,0.34 c -2.28,4.8 -6.38,5.6 -8.47,5.6 -2.99,0 -6.63,-1.3 -8.67,-5.94 -1.6,-3.44 -1.85,-7.33 -1.85,-11.31 0,-3.74 0.21,-8.22 2.25,-12 2.14,-4.03 5.78,-5.03 8.22,-5.03 v 1.09 c -1.94,0 -4.89,1.25 -5.78,6.03 -0.55,2.98 -0.55,7.56 -0.55,10.52 0,3.18 0,6.46 0.41,9.15 0.94,5.94 4.67,6.38 5.92,6.38 1.64,0 4.94,-0.89 5.88,-5.83 0.5,-2.78 0.5,-6.58 0.5,-9.7 0,-3.75 0,-7.13 -0.55,-10.32 -0.75,-4.73 -3.59,-6.23 -5.83,-6.23 v 0 -1.09 c 2.69,0 6.47,1.04 8.67,5.78 1.6,3.43 1.85,7.31 1.85,11.25 z"
           inkscape:connector-curvature="0"
           style="fill:#000000;stroke-width:0" /><path
           id="path2682"
           d="m 588.55,408.84 v 0.13 l -0.01,0.14 -0.02,0.13 -0.02,0.13 -0.03,0.12 -0.03,0.13 -0.05,0.12 -0.04,0.12 -0.06,0.12 -0.05,0.11 -0.07,0.11 -0.07,0.11 -0.07,0.1 -0.08,0.1 -0.08,0.1 -0.09,0.09 -0.09,0.09 -0.1,0.08 -0.1,0.08 -0.1,0.07 -0.11,0.07 -0.11,0.07 -0.11,0.06 -0.12,0.05 -0.12,0.05 -0.12,0.04 -0.13,0.04 -0.13,0.03 -0.13,0.02 -0.13,0.02 -0.13,0.01 h -0.14 c -1.43,0 -2.64,-1.2 -2.64,-2.64 0,-1.44 1.21,-2.64 2.64,-2.64 1.46,0 2.64,1.2 2.64,2.64 z"
           inkscape:connector-curvature="0"
           style="fill:#000000;stroke-width:0" /><path
           id="path2684"
           d="m 599.12,410.04 5.28,5.13 c 7.76,6.87 10.76,9.56 10.76,14.54 0,5.69 -4.48,9.68 -10.56,9.68 -5.64,0 -9.33,-4.6 -9.33,-9.03 0,-2.79 2.5,-2.79 2.64,-2.79 0.86,0 2.6,0.6 2.6,2.64 0,1.3 -0.89,2.6 -2.64,2.6 -0.39,0 -0.5,0 -0.64,-0.05 1.14,3.24 3.82,5.08 6.72,5.08 4.53,0 6.68,-4.05 6.68,-8.13 0,-3.98 -2.5,-7.92 -5.23,-11.01 l -9.56,-10.66 c -0.57,-0.54 -0.57,-0.64 -0.57,-1.84 h 18.49 l 1.4,8.67 h -1.25 c -0.25,-1.5 -0.59,-3.69 -1.09,-4.44 -0.36,-0.39 -3.64,-0.39 -4.73,-0.39 z"
           inkscape:connector-curvature="0"
           style="fill:#000000;stroke-width:0" /></g>    </g>
  </g>
</svg>
