<svg xmlns="http://www.w3.org/2000/svg" viewBox="0 0 1043.53 195.18">
<path d="M153.88,0H3.89A3.89,3.89,0,0,0,0,3.89v150a3.89,3.89,0,0,0,3.89,3.88h14.8l-18.42,35a1.54,1.54,0,0,0,2,2.23l68.54-37.25h83.11a3.88,3.88,0,0,0,3.88-3.88V3.89A3.89,3.89,0,0,0,153.88,0ZM99.3,79.56l29.91,30.72a2,2,0,0,1,0,2.77l-17,16.53a2,2,0,0,1-2.77,0L80.1,99.42a2,2,0,0,0-2.8,0L48,129.54a2,2,0,0,1-2.77,0l-17-16.53a2,2,0,0,1,0-2.77L58.1,79.56a2,2,0,0,0,0-2.73L28.19,46.11a2,2,0,0,1,0-2.77l17-16.53a2,2,0,0,1,2.77,0L77.3,57a2,2,0,0,0,2.8,0l29.33-30.12a2,2,0,0,1,2.77,0l17,16.53a2,2,0,0,1,0,2.77L99.3,76.83A2,2,0,0,0,99.3,79.56Z" style="fill:#80b930"/>
<path d="M282.8,25.53a51.66,51.66,0,0,1,26.45,7.15,54.09,54.09,0,0,1,10.62,8.22,50.72,50.72,0,0,1,8.22,10.66,54.25,54.25,0,0,1,5.3,12.62,52.26,52.26,0,0,1-5.26,40.47,53.84,53.84,0,0,1-8.22,10.6,52.17,52.17,0,0,1-10.63,8.18,52.81,52.81,0,0,1-26.62,7.12,52.08,52.08,0,0,1-14-1.86,51.51,51.51,0,0,1-12.52-5.29,54.07,54.07,0,0,1-10.59-8.22,52.07,52.07,0,0,1-15.3-37.11,51.87,51.87,0,0,1,7.15-26.48,53.76,53.76,0,0,1,8.22-10.66,51.26,51.26,0,0,1,10.62-8.22,53.77,53.77,0,0,1,12.56-5.29A51.3,51.3,0,0,1,282.8,25.53ZM243.46,77.87a38,38,0,0,0,1.41,10.41,40,40,0,0,0,4,9.36,39,39,0,0,0,14.06,14.06,40.14,40.14,0,0,0,9.35,4,39.1,39.1,0,0,0,20.81,0,39.25,39.25,0,0,0,9.35-4,39.28,39.28,0,0,0,14-14.06,40,40,0,0,0,4-9.36,39.06,39.06,0,0,0-1.69-25.65,39.47,39.47,0,0,0-20.8-20.8,37.73,37.73,0,0,0-15.24-3.1,38.16,38.16,0,0,0-10.42,1.41,40.14,40.14,0,0,0-9.35,4,39.28,39.28,0,0,0-14.06,14,39.08,39.08,0,0,0-4,9.35A38.26,38.26,0,0,0,243.46,77.87Z" style="fill:#80b930"/>
<path d="M367.74,53.24a50.79,50.79,0,0,1,4.33-4.71,31.8,31.8,0,0,1,5.4-4.12,29.25,29.25,0,0,1,6.64-3,27.36,27.36,0,0,1,8.18-1.14,35.9,35.9,0,0,1,14.93,2.93,30.9,30.9,0,0,1,10.83,8,34.31,34.31,0,0,1,6.6,11.87,46.48,46.48,0,0,1,2.24,14.58v46.7a4.69,4.69,0,0,1-1.2,3.51,4.23,4.23,0,0,1-3.06,1.17h-5.09c-1.7,0-2.79-.35-3.27-1a6.18,6.18,0,0,1-.72-3.44V77.66a32.85,32.85,0,0,0-1.14-8.43,22.83,22.83,0,0,0-3.71-7.8,19.35,19.35,0,0,0-6.84-5.71,22.6,22.6,0,0,0-10.46-2.2,25.37,25.37,0,0,0-8.11,1.41,24.79,24.79,0,0,0-7.64,4.16A22.44,22.44,0,0,0,370,65.9a18.91,18.91,0,0,0-2.24,9.28V126q0,3-3,3h-7.09q-3.22,0-3.23-3V44.71a2.88,2.88,0,0,1,.89-2.2,3,3,0,0,1,2.13-.82h7.16a3.06,3.06,0,0,1,2.3.89,3,3,0,0,1,.86,2.13Z" style="fill:#80b930"/><path d="M458.11,126q0,3-3,3H448q-3.22,0-3.23-3V18.79a2.88,2.88,0,0,1,.89-2.21,3,3,0,0,1,2.14-.82H455a3.06,3.06,0,0,1,2.3.89,3,3,0,0,1,.86,2.14Z" style="fill:#80b930"/><path d="M493.74,25.8a2.68,2.68,0,0,1-3,3h-7.08c-2.16,0-3.23-1-3.23-3V18.72a2.83,2.83,0,0,1,.89-2.2,3.05,3.05,0,0,1,2.13-.83h7.15a3.12,3.12,0,0,1,2.31.86,3,3,0,0,1,.86,2.17Zm0,100.21a2.68,2.68,0,0,1-3,3h-7.08c-2.16,0-3.23-1-3.23-3V44.71a2.84,2.84,0,0,1,.89-2.2,3,3,0,0,1,2.13-.82h7.15a3.07,3.07,0,0,1,2.31.89,3,3,0,0,1,.86,2.13Z" style="fill:#80b930"/>
<path d="M529.3,53.24a48.15,48.15,0,0,1,4.33-4.71,31,31,0,0,1,5.4-4.12,29.06,29.06,0,0,1,6.64-3,27.32,27.32,0,0,1,8.18-1.14,35.93,35.93,0,0,1,14.93,2.93,31,31,0,0,1,10.83,8,34.31,34.31,0,0,1,6.6,11.87,46.48,46.48,0,0,1,2.24,14.58v46.7a4.7,4.7,0,0,1-1.21,3.51,4.2,4.2,0,0,1-3.06,1.17h-5.09c-1.7,0-2.78-.35-3.26-1a6.08,6.08,0,0,1-.73-3.44V77.66A33.27,33.27,0,0,0,574,69.23a23,23,0,0,0-3.72-7.8,19.35,19.35,0,0,0-6.84-5.71A22.56,22.56,0,0,0,553,53.52a25.43,25.43,0,0,0-8.12,1.41,24.74,24.74,0,0,0-7.63,4.16,22.33,22.33,0,0,0-5.68,6.81,18.9,18.9,0,0,0-2.23,9.28V126a2.68,2.68,0,0,1-3,3h-7.08q-3.24,0-3.24-3V44.71a2.85,2.85,0,0,1,.9-2.2,3,3,0,0,1,2.13-.82h7.15a3.08,3.08,0,0,1,2.31.89,3,3,0,0,1,.86,2.13Z" style="fill:#80b930"/><path d="M668.57,109a11.58,11.58,0,0,1,1.34-1,2.32,2.32,0,0,1,3.47.76c.92,1.23,1.66,2.24,2.24,3s1,1.4,1.41,1.86.64.87.82,1.1a3.48,3.48,0,0,1,.55.86,2.33,2.33,0,0,1,.21,1,3,3,0,0,1-.58,1.61,10.34,10.34,0,0,1-2,2,55.15,55.15,0,0,1-6.16,4.23,47.18,47.18,0,0,1-6.7,3.27,41.89,41.89,0,0,1-7.4,2.13,44.34,44.34,0,0,1-20-.86,45.19,45.19,0,0,1-10.76-4.61,47.16,47.16,0,0,1-16.4-16.26,44.6,44.6,0,0,1-4.68-10.77,42.92,42.92,0,0,1-1.65-11.93,46.1,46.1,0,0,1,5.95-22.77,44,44,0,0,1,16-16.23,45.54,45.54,0,0,1,10.94-4.57,46.54,46.54,0,0,1,12.41-1.62,45.59,45.59,0,0,1,10.25,1.17,47.15,47.15,0,0,1,9.77,3.41,44.76,44.76,0,0,1,8.77,5.53,43.76,43.76,0,0,1,7.32,7.57,41.23,41.23,0,0,1,6.54,13.48,61.23,61.23,0,0,1,2,17.4c0,2.16-1,3.23-3,3.23H616.64a31.55,31.55,0,0,0,4.09,10.18,34.66,34.66,0,0,0,7,8.15,32,32,0,0,0,9.11,5.44,28.48,28.48,0,0,0,10.39,2,29.89,29.89,0,0,0,6.84-.73,27.4,27.4,0,0,0,5.57-1.92,29.4,29.4,0,0,0,4.64-2.75c1.43-1,2.8-2.1,4.13-3.2ZM630.88,58.13a34.51,34.51,0,0,0-9,8.83,31.67,31.67,0,0,0-5.16,11.73h62.18a27.11,27.11,0,0,0-3.55-10.39,28.71,28.71,0,0,0-7-8,32.34,32.34,0,0,0-9.45-5.13A33.26,33.26,0,0,0,648,53.38a34,34,0,0,0-8.83,1.17A30.88,30.88,0,0,0,630.88,58.13Z" style="fill:#80b930"/><path d="M705,29.92a2.79,2.79,0,0,1,.93-2.2,3.37,3.37,0,0,1,2.3-.82h74a3.46,3.46,0,0,1,2.2.76,3.06,3.06,0,0,1,1.1,2.26V47a3.86,3.86,0,0,1-.86,2.37,2.91,2.91,0,0,1-2.44,1.13H758.53V125.8a3.3,3.3,0,0,1-.89,2.24,3,3,0,0,1-2.34,1H735.14a3.24,3.24,0,0,1-2.2-.93,3,3,0,0,1-1-2.31V50.49H708.25a3.16,3.16,0,0,1-2.3-.89A3.44,3.44,0,0,1,705,47Z" style="fill:#80b930"/><path d="M802.2,30.06a3.25,3.25,0,0,1,.79-2.3,2.88,2.88,0,0,1,2.23-.86h68.23a3,3,0,0,1,2.34.89,3.42,3.42,0,0,1,.83,2.4v17a3.59,3.59,0,0,1-.83,2.23,2.86,2.86,0,0,1-2.41,1.06H828.82V67.55H863.2a3.55,3.55,0,0,1,2.17.62,2.37,2.37,0,0,1,.86,2.06V85.09a2.8,2.8,0,0,1-.76,1.85,2.7,2.7,0,0,1-2.2.9H828.82v17.6H875c2.07,0,3.1,1.06,3.1,3.16v17.28a1.67,1.67,0,0,1-.55,1.23c-.18,1.29-1.12,1.93-2.82,1.93H805.22a3.23,3.23,0,0,1-2.2-.73,2.8,2.8,0,0,1-.82-2.23Z" style="fill:#80b930"/><path d="M983.49,78.07a50.65,50.65,0,0,1-1.85,13.86,49.56,49.56,0,0,1-5.3,12.24,51,51,0,0,1-18.81,18.12,53.12,53.12,0,0,1-12.55,5A55.23,55.23,0,0,1,931,129H897.11a4.34,4.34,0,0,1-2.2-.56,2.45,2.45,0,0,1-1-2.33V30.06a3.36,3.36,0,0,1,.79-2.33,3,3,0,0,1,2.37-.9H931a53.88,53.88,0,0,1,13.92,1.79,52.63,52.63,0,0,1,12.52,5.09,53.51,53.51,0,0,1,10.63,7.91,48.73,48.73,0,0,1,8.22,10.32,51.41,51.41,0,0,1,5.29,12.31A50,50,0,0,1,983.49,78.07ZM920.56,51.52v52.89h5.78c1,0,2.09,0,3.1-.1l3-.24a27.74,27.74,0,0,0,9.63-2.51,26.82,26.82,0,0,0,7.81-5.5,24.72,24.72,0,0,0,5.22-8,27.39,27.39,0,0,0-.27-20.66,26.18,26.18,0,0,0-14.58-13.9,29,29,0,0,0-10.63-2Z" style="fill:#80b930"/><path d="M1021.35,25.34a21.67,21.67,0,0,1,11.15,3,22.59,22.59,0,0,1,4.49,3.48,22.22,22.22,0,0,1,3.48,4.52,22.46,22.46,0,0,1,2.26,5.35,21.62,21.62,0,0,1,.8,5.94,21.67,21.67,0,0,1-3,11.15A22.31,22.31,0,0,1,1037,63.3a22.37,22.37,0,0,1-9.84,5.75,22.33,22.33,0,0,1-11.81,0,21.75,21.75,0,0,1-5.29-2.24,23.39,23.39,0,0,1-4.5-3.49,21.7,21.7,0,0,1-3.5-4.52,22.88,22.88,0,0,1-2.26-5.35,22,22,0,0,1-.8-5.94,21.45,21.45,0,0,1,.79-5.85,21.78,21.78,0,0,1,2.24-5.27,22.68,22.68,0,0,1,3.49-4.51,21.85,21.85,0,0,1,4.51-3.49,22.4,22.4,0,0,1,5.35-2.26A21.74,21.74,0,0,1,1021.35,25.34Zm-9,6.87a18.65,18.65,0,0,0-5.44,4.79,18.39,18.39,0,0,0-3.1,6.15,17.7,17.7,0,0,0-.55,6.82,17.21,17.21,0,0,0,5.11,10.46,18.67,18.67,0,0,0,3.7,2.8,18,18,0,0,0,4.3,1.79,17.68,17.68,0,0,0,9.32,0,16.08,16.08,0,0,0,4.5-2,16.94,16.94,0,0,0,3.89-2.94,19,19,0,0,0,2.89-3.73,17.79,17.79,0,0,0,1.81-4.26,18.56,18.56,0,0,0,.67-4.57,17.44,17.44,0,0,0-2.35-9.07,17,17,0,0,0-4.72-5.32,18,18,0,0,0-6.2-2.93,18.4,18.4,0,0,0-6.92-.38A18.81,18.81,0,0,0,1012.37,32.21Zm-.38,3.91c0-.56.25-.84.76-.84h10.14A8.57,8.57,0,0,1,1026,36a8.17,8.17,0,0,1,2.47,1.72,8.08,8.08,0,0,1,1.66,2.51,7.64,7.64,0,0,1,.62,3.06,7.86,7.86,0,0,1-1.07,4.08,8.36,8.36,0,0,1-2.84,2.92l4.17,8.77a.17.17,0,0,0,0,.1.2.2,0,0,1,0,.11c0,.38-.26.58-.76.58h-3.59c-.29,0-.5-.18-.64-.53l-3.67-8h-5.77v7.84c0,.47-.25.7-.76.7h-3.09a1,1,0,0,1-.54-.16.62.62,0,0,1-.22-.54Zm14.17,7.11a3.38,3.38,0,0,0-.25-1.27,3.56,3.56,0,0,0-.68-1.1,3.72,3.72,0,0,0-1.07-.79,3.24,3.24,0,0,0-1.41-.31h-6.15v7h6.15a3.42,3.42,0,0,0,2.46-1,3.18,3.18,0,0,0,.7-1.11A3.71,3.71,0,0,0,1026.16,43.23Z" style="fill:#80b930"/>
</svg>